<?xml version="1.0" encoding="UTF-8"?>
<svg version="1.1" xmlns="http://www.w3.org/2000/svg" width="512" height="512">
<path d="M0 0 C11.42123997 3.74815732 21.14468394 4.95319784 33.17382812 4.62841797 C48.3859112 4.30296496 62.2606989 7.86230884 73.515625 18.59375 C74.28519531 20.12322266 74.28519531 20.12322266 75.0703125 21.68359375 C77.74610377 24.86804183 78.09733712 25.03498101 81.97265625 25.4765625 C83.7566331 25.58013203 85.54212381 25.65959098 87.328125 25.71875 C108.33735341 27.11061363 127.21956599 33.65823468 141.515625 49.59375 C148.29216773 58.20821115 153.21770097 68.47847567 154.015625 79.46875 C154.30018793 82.19465358 154.30018793 82.19465358 155.515625 84.59375 C158.55340023 86.79166972 161.65043324 88.28116398 165.05078125 89.85546875 C175.2401932 94.96740598 182.85816503 104.0175755 186.890625 114.53125 C188.97257688 119.89059709 191.64730394 123.20685086 195.5859375 127.31640625 C203.68635404 136.87620957 205.20677945 149.54791536 204.515625 161.59375 C204.21676692 163.03414798 203.90606798 164.47219425 203.578125 165.90625 C203.1387641 169.42825089 203.1387641 169.42825089 204.69140625 171.14453125 C205.89261373 172.25737404 207.11203643 173.35070641 208.34375 174.4296875 C223.94453761 189.97435717 228.81777064 212.296642 228.95315552 233.47409058 C228.95297896 245.73753909 228.45885559 257.65294284 225.515625 269.59375 C225.20963379 270.88732422 225.20963379 270.88732422 224.89746094 272.20703125 C218.62058011 298.33785972 207.82280677 323.26097844 184.515625 338.59375 C176.78291301 342.91866257 169.31828305 345.57059536 160.515625 346.59375 C160.45375 347.810625 160.391875 349.0275 160.328125 350.28125 C158.61142219 365.05881339 149.82328166 378.23249326 138.515625 387.59375 C122.89476157 398.91792117 104.94181792 405.85837361 85.515625 406.59375 C84.53335937 406.6453125 83.55109375 406.696875 82.5390625 406.75 C75.1570539 406.95745692 68.0696196 406.2951025 60.765625 405.28125 C59.47144653 405.10480957 59.47144653 405.10480957 58.15112305 404.92480469 C52.08009721 404.01835272 46.34744479 402.49898776 40.515625 400.59375 C40.9915565 403.84423232 41.47193549 407.09404224 41.953125 410.34375 C42.08783203 411.26414062 42.22253906 412.18453125 42.36132812 413.1328125 C42.55952148 414.46699219 42.55952148 414.46699219 42.76171875 415.828125 C42.88216553 416.64506836 43.0026123 417.46201172 43.12670898 418.30371094 C43.48921114 420.43821829 43.98217041 422.49696162 44.515625 424.59375 C44.98571941 428.90166433 45.00884125 432.45935262 43.265625 436.46875 C35.45760842 442.50221736 22.23469776 442.80153797 12.61401367 444.38354492 C10.18855784 444.78365303 7.76520264 445.19509868 5.34179688 445.60742188 C3.77875883 445.86786653 2.21561137 446.12765564 0.65234375 446.38671875 C-0.06133865 446.50855026 -0.77502106 446.63038177 -1.5103302 446.75590515 C-6.79604987 447.61250738 -12.03638838 448.44769882 -17.171875 446.65625 C-22.72778817 441.70097609 -24.32144428 433.2365842 -26.03515625 426.23046875 C-26.36799873 424.92236992 -26.36799873 424.92236992 -26.70756531 423.58784485 C-27.64275614 419.91243694 -28.55998549 416.23263846 -29.47631836 412.55249023 C-37.0305197 382.34928623 -46.959692 353.118433 -69.484375 330.59375 C-71.16446324 330.57693022 -72.84534359 330.6312961 -74.5234375 330.71484375 C-75.57152588 330.76342529 -76.61961426 330.81200684 -77.69946289 330.86206055 C-79.38736938 330.94580933 -79.38736938 330.94580933 -81.109375 331.03125 C-111.84556076 332.37702814 -142.80988237 331.16641768 -167.16015625 309.80078125 C-178.11683447 299.39654059 -187.13604403 285.77140085 -187.58203125 270.1796875 C-187.54980469 269.32632812 -187.51757812 268.47296875 -187.484375 267.59375 C-188.40186523 267.62202881 -188.40186523 267.62202881 -189.33789062 267.65087891 C-195.42620752 267.75685382 -201.03195429 267.21797908 -206.984375 265.96875 C-207.84240723 265.79053711 -208.70043945 265.61232422 -209.58447266 265.42871094 C-228.68784649 261.28022887 -245.51873783 254.79171755 -259.484375 240.59375 C-260.06832031 240.00851562 -260.65226562 239.42328125 -261.25390625 238.8203125 C-269.4650964 229.96469983 -273.23674158 218.18860235 -273.796875 206.28125 C-274.14858609 201.58927436 -275.80534033 199.59376221 -278.984375 196.26953125 C-284.33609482 190.29065677 -284.16489689 182.22716055 -283.92578125 174.6328125 C-283.57095035 169.7884009 -281.8341766 165.85545369 -279.48046875 161.6328125 C-278.25205043 157.88493229 -278.65065272 155.21514355 -279.15405273 151.35058594 C-281.63888563 130.61242407 -279.08927302 112.65965046 -266.93359375 95.390625 C-260.75251627 87.59909309 -251.45633675 81.67425484 -242.484375 77.59375 C-241.824375 77.59375 -241.164375 77.59375 -240.484375 77.59375 C-240.443125 76.665625 -240.401875 75.7375 -240.359375 74.78125 C-238.85788945 64.59994386 -231.14480563 54.83443327 -223.1015625 48.80859375 C-216.26833281 44.44946447 -209.46024053 41.56075836 -201.28515625 41.51171875 C-193.31705062 41.8599773 -193.31705062 41.8599773 -186.375 38.81640625 C-184.94374459 36.53941279 -184.94374459 36.53941279 -183.765625 34.06640625 C-178.85840944 24.59607866 -167.19485269 19.12412348 -157.43408203 15.92089844 C-149.99459407 13.74003112 -142.87378737 12.49419071 -135.109375 12.34375 C-126.08962016 11.96952613 -118.77847402 8.206943 -110.68798828 4.55224609 C-103.3683547 1.36845688 -95.52270445 -1.55458278 -87.484375 -0.40625 C-84.6743404 1.38738911 -82.97497032 2.61255935 -81.484375 5.59375 C-81.2109375 7.58203125 -81.2109375 7.58203125 -81.109375 9.90625 C-81.06039062 10.66550781 -81.01140625 11.42476562 -80.9609375 12.20703125 C-81.77184791 15.90454068 -83.55564637 17.24924962 -86.484375 19.59375 C-89.28208067 20.96188184 -92.14933692 21.94903632 -95.109375 22.90625 C-95.8725 23.16986328 -96.635625 23.43347656 -97.421875 23.70507812 C-100.62471974 24.7867406 -103.07358179 25.59375 -106.484375 25.59375 C-106.24726807 26.12331299 -106.01016113 26.65287598 -105.76586914 27.19848633 C-104.69140856 29.60042308 -103.61911927 32.0033231 -102.546875 34.40625 C-102.17369141 35.23962891 -101.80050781 36.07300781 -101.41601562 36.93164062 C-101.05830078 37.73408203 -100.70058594 38.53652344 -100.33203125 39.36328125 C-100.00211182 40.10167236 -99.67219238 40.84006348 -99.33227539 41.60083008 C-98.484375 43.59375 -98.484375 43.59375 -97.484375 46.59375 C-96.53175781 46.43519531 -95.57914063 46.27664062 -94.59765625 46.11328125 C-83.80162677 44.58572041 -69.87909361 43.279822 -60.484375 49.59375 C-53.08110142 55.17636667 -46.98948445 61.13772826 -44.484375 70.21875 C-44.484375 74.29405372 -45.13880178 76.2645493 -47.484375 79.59375 C-50.89672359 81.99790469 -52.86627191 82.59375 -57.046875 82.59375 C-62.35978092 81.04817737 -64.56647122 78.02797466 -67.484375 73.46875 C-69.67126341 70.32509792 -71.06723804 69.24224223 -74.484375 67.59375 C-77.63092816 67.15853896 -77.63092816 67.15853896 -80.921875 67.28125 C-82.01371094 67.28511719 -83.10554687 67.28898437 -84.23046875 67.29296875 C-87.79094591 67.62208849 -90.31561803 67.89555122 -93.484375 69.59375 C-94.49795052 72.2863488 -95.07378575 74.43145273 -95.546875 77.21875 C-97.11596294 84.71550348 -98.91120009 90.49072969 -104.859375 95.65625 C-108.50208019 96.95721614 -110.76701902 96.58947035 -114.484375 95.59375 C-117.40820648 94.0682727 -118.99048236 92.93101486 -120.15234375 89.78515625 C-121.07733858 84.7938475 -120.13392855 81.09699316 -118.484375 76.34375 C-114.58879668 64.67058849 -117.31064528 54.45714925 -122.484375 43.59375 C-124.05439409 40.8451529 -125.73876384 38.23710404 -127.484375 35.59375 C-127.484375 34.93375 -127.484375 34.27375 -127.484375 33.59375 C-141.01319032 34.81198455 -154.89103898 36.13152995 -165.484375 45.59375 C-168.42626113 49.21396577 -170.32130207 53.07495016 -171.984375 57.40625 C-173.76288281 61.18557909 -174.69799945 61.94132908 -178.484375 63.59375 C-181.31291614 63.5966158 -183.88140425 63.46257004 -186.671875 63.15625 C-195.83696952 62.40413204 -203.90752645 62.56807042 -211.73828125 68.00390625 C-217.65484589 73.39102439 -219.43179342 81.17062122 -221.296875 88.67578125 C-223.78999577 94.80196947 -229.71205488 96.78929525 -235.359375 99.40625 C-246.49730467 104.83094113 -251.75368813 110.94165548 -256.484375 122.59375 C-257.75648912 127.11851518 -257.67572602 131.67679868 -257.671875 136.34375 C-257.67251953 137.14997803 -257.67316406 137.95620605 -257.67382812 138.78686523 C-257.63074817 143.62405877 -257.19119496 147.97968911 -255.953125 152.66796875 C-254.029079 160.57259106 -256.09243597 165.10355709 -260.1328125 171.94921875 C-262.16672843 175.92887506 -262.24220786 178.19831942 -261.484375 182.59375 C-259.58041578 185.62598136 -257.44671206 187.62790941 -254.796875 190.03125 C-251.05495394 194.17770307 -251.4679687 198.02853673 -251.609375 203.34375 C-251.66441316 212.50760368 -248.79613094 219.94906628 -242.484375 226.59375 C-228.2761563 240.11308537 -205.64734506 245.79824428 -186.45703125 245.703125 C-183.92554364 245.60998222 -181.54358574 245.36670769 -179.046875 244.96875 C-175.29176255 244.57347501 -173.67736035 244.64248117 -170.484375 246.59375 C-167.408 249.53339722 -166.23503031 251.68014166 -166.015625 255.8515625 C-165.99249022 257.47382682 -165.98262343 259.09632167 -165.984375 260.71875 C-165.60772483 274.61780188 -161.4847847 283.97125211 -151.484375 293.65625 C-131.91266519 310.31511337 -105.65333365 310.76047527 -81.3215332 308.9831543 C-69.61529935 307.84011568 -58.36120607 304.90514856 -46.97875977 302.06298828 C-36.36865678 299.42709773 -25.79318659 297.23981222 -14.984375 295.59375 C-13.72286621 295.39869873 -12.46135742 295.20364746 -11.16162109 295.00268555 C-5.10910971 294.11632942 0.95854351 293.37414511 7.046875 292.78125 C8.14580078 292.67167969 9.24472656 292.56210937 10.37695312 292.44921875 C14.13691817 292.62235964 16.33324768 293.62163695 19.515625 295.59375 C21.91977969 299.00609859 22.515625 300.97564691 22.515625 305.15625 C21.29171323 309.36344672 19.88905201 310.82738616 16.515625 313.59375 C13.1159668 314.54101562 13.1159668 314.54101562 9.21484375 315 C8.15642021 315.13569145 8.15642021 315.13569145 7.07661438 315.27412415 C5.56789497 315.46600977 4.05798104 315.648692 2.54711914 315.82290649 C-1.40266813 316.27929596 -5.34346453 316.80315156 -9.28515625 317.32421875 C-10.46224655 317.47765999 -10.46224655 317.47765999 -11.66311646 317.63420105 C-21.38967732 318.93167965 -30.93972334 321.0006873 -40.49609375 323.21411133 C-42.484375 323.59375 -42.484375 323.59375 -45.484375 323.59375 C-44.79472656 324.4909375 -44.10507813 325.388125 -43.39453125 326.3125 C-23.85585697 352.08185985 -4.484375 391.58383181 -4.484375 424.59375 C8.385625 422.61375 8.385625 422.61375 21.515625 420.59375 C20.855625 417.62375 20.195625 414.65375 19.515625 411.59375 C19.14099673 406.6989403 19.19077488 401.81418701 19.203125 396.90625 C19.18701172 395.61396484 19.17089844 394.32167969 19.15429688 392.99023438 C19.15365234 391.74177734 19.15300781 390.49332031 19.15234375 389.20703125 C19.14787231 387.51767456 19.14787231 387.51767456 19.14331055 385.79418945 C19.57087958 382.118778 20.58560137 379.73743271 22.515625 376.59375 C26.60113704 373.87007531 29.71849793 374.05221617 34.515625 374.59375 C37.56503017 375.45111899 40.41837487 376.66268452 43.328125 377.90625 C50.17935492 380.63020004 56.77691259 382.47815732 64.078125 383.53125 C65.27175659 383.70491089 65.27175659 383.70491089 66.48950195 383.88208008 C87.35716374 386.56801674 108.60653674 382.52881291 125.515625 369.59375 C134.58334238 361.27278581 137.81525076 352.56348968 139.515625 340.59375 C138.78085937 340.31917969 138.04609375 340.04460937 137.2890625 339.76171875 C134.68905749 338.66678706 132.51085361 337.42402797 130.140625 335.90625 C118.69894491 329.00438734 107.25063112 324.59026906 94.37231445 321.16625977 C88.89559359 319.6384913 84.96635841 318.421877 81.515625 313.59375 C80.60475986 310.16461066 80.80976164 307.0604499 81.515625 303.59375 C83.81212135 300.28409349 85.27915993 298.94179202 89.15234375 297.8515625 C93.50804247 297.51767619 97.02177204 298.37533782 101.203125 299.53125 C102.03110596 299.75651367 102.85908691 299.98177734 103.7121582 300.21386719 C120.10979284 304.87899192 136.50566823 312.16361673 150.265625 322.328125 C154.24981652 325.10556621 155.74158801 325.30985555 160.515625 324.59375 C174.30221679 321.03186458 184.02586747 311.85995407 191.49609375 300.00390625 C194.63591873 294.6639909 196.74134761 289.22510131 198.640625 283.34375 C199.14819336 281.77729736 199.14819336 281.77729736 199.66601562 280.17919922 C207.77577451 254.30688077 211.89712346 224.53511838 199.140625 199.53125 C196.37648477 194.75467363 193.44982321 190.46992168 189.515625 186.59375 C188.896875 185.93375 188.278125 185.27375 187.640625 184.59375 C183.55596799 182.67155847 179.51588449 183.93448845 175.4296875 185.28125 C169.82853775 187.68480851 166.3316436 191.20695166 163.515625 196.59375 C162.41436912 199.92137157 161.47997705 203.23099813 160.66796875 206.640625 C159.25688621 210.25682298 157.79457278 211.56667656 154.515625 213.59375 C151.41293551 214.36410955 148.64115862 214.23924064 145.515625 213.59375 C142.03139748 211.19834358 140.82252212 209.53362243 139.515625 205.53125 C139.515625 194.22079269 143.86285532 183.24287272 151.453125 174.90625 C158.91143615 167.86020731 170.12751322 161.90813774 180.453125 161.46875 C181.13375 161.51 181.814375 161.55125 182.515625 161.59375 C182.897041 154.82714765 182.57848974 148.75729262 179.515625 142.59375 C178.52289744 141.58653007 177.52406336 140.58523982 176.515625 139.59375 C176.515625 138.93375 176.515625 138.27375 176.515625 137.59375 C175.6803125 137.2534375 175.6803125 137.2534375 174.828125 136.90625 C170.76964424 134.60278795 168.04933034 132.49136899 166.7421875 127.84375 C166.52304687 126.8125 166.30390625 125.78125 166.078125 124.71875 C164.5264834 117.96745835 162.75950212 114.33372281 156.86767578 110.52978516 C146.84173499 104.47358553 138.87770269 101.90572265 127.16796875 104.26953125 C116.7592285 106.98225689 110.82432801 112.08160344 104.9375 120.89453125 C103.26631007 122.89169504 101.95008685 123.69056924 99.515625 124.59375 C94.30987422 124.59375 92.47419955 124.43250273 88.515625 120.96875 C86.11182703 116.91234092 85.72887598 115.23556924 86.515625 110.59375 C91.63912518 98.37116271 100.53226847 91.07729677 112.453125 85.84375 C119.05407632 83.22191621 125.40168311 81.59375 132.515625 81.59375 C129.42186271 70.23714432 125.05135529 62.0941649 114.81640625 55.8671875 C102.11693385 48.83827748 89.39728091 47.22834156 75.06762695 47.05981445 C66.2745184 46.86809855 66.2745184 46.86809855 62.515625 43.59375 C61.14453125 41.5078125 61.14453125 41.5078125 60.078125 39.21875 C56.97723158 33.32322423 53.32678493 30.02269305 47.015625 27.78125 C39.85326135 25.87773894 32.05069584 25.80252487 24.76171875 27.07421875 C14.43220483 28.83339361 5.05281012 24.75365606 -4.62426758 21.50537109 C-8.44963213 20.28608716 -12.32175374 19.29225337 -16.21777344 18.32568359 C-18.484375 17.59375 -18.484375 17.59375 -21.171875 15.46875 C-23.01238935 11.43714715 -23.42233863 7.94464012 -22.484375 3.59375 C-16.14705503 -4.41128575 -9.04084159 -2.9706705 0 0 Z " fill="#000000" transform="translate(283.484375,35.40625)"/>
<path d="M0 0 C3.26032843 2.2910416 4.82042989 4.86725909 5.74609375 8.76171875 C7.37064847 23.0827934 2.04635923 35.11691207 -6.6484375 46.078125 C-10.57142857 50.78571429 -10.57142857 50.78571429 -13 52 C-12.71253906 52.70125 -12.42507812 53.4025 -12.12890625 54.125 C-10.97663011 57.0595164 -9.94012721 60.01117971 -8.9375 63 C-8.42509766 64.5159375 -8.42509766 64.5159375 -7.90234375 66.0625 C-6.3074544 71.25452073 -5.79160878 75.99644648 -5.6875 81.4375 C-5.63142578 83.35369141 -5.63142578 83.35369141 -5.57421875 85.30859375 C-6.06769166 89.58686802 -7.30627876 91.68657295 -10 95 C-13.47263273 96.73631636 -17.21193013 96.60190402 -21 96 C-23.75569447 93.81840855 -25.43588747 92.12822506 -27 89 C-27.2103837 87.06280356 -27.41674422 85.12501192 -27.59472656 83.18457031 C-28.42905473 74.33620205 -29.25765754 67.82739569 -35.75 61.1875 C-43.61570913 55.8932727 -50.66831544 55.56715863 -59.84179688 55.47265625 C-64.68260547 55.34787422 -68.10363575 55.20788047 -72 52 C-74.66836411 47.99745384 -74.8340238 44.70686701 -74 40 C-71.81840855 37.24430553 -70.12822506 35.56411253 -67 34 C-54.28045446 32.93612477 -41.97340994 33.3517438 -30 38 C-23.28229107 32.03240745 -17.68338361 25.92033348 -16.6171875 16.68359375 C-16.4994654 14.43407797 -16.39104524 12.18405165 -16.29296875 9.93359375 C-15.87554764 5.75381708 -14.91371521 3.99465174 -12 1 C-7.90597232 -1.54493613 -4.58938407 -1.16820685 0 0 Z " fill="#000000" transform="translate(162,214)"/>
<path d="M0 0 C5.30068679 3.57012838 7.12810531 6.69290423 9 12.6875 C13.4962763 25.65611075 19.57508208 35.29560776 32.0625 41.875 C38.68068064 44.89987397 44.36277872 45.99667364 51.625 46.375 C57.04293782 46.75168166 60.16733773 47.06375227 64 51 C66.01536061 55.2725645 66.23834919 57.2055027 64.875 61.75 C62.9963823 65.00627068 62.21242911 66.21707547 59 68 C56.25680937 68.29925716 53.7989959 68.42662054 51.0625 68.375 C50.31194336 68.36774902 49.56138672 68.36049805 48.78808594 68.35302734 C40.12074087 68.14140427 31.99517087 66.35563741 24 63 C23.7215625 63.99 23.7215625 63.99 23.4375 65 C19.31931934 73.59446399 12.11567074 78.4484814 4 83 C3.35804688 83.36351562 2.71609375 83.72703125 2.0546875 84.1015625 C-2.41396217 86.32549513 -7.1225744 87.00471314 -12 86 C-14.75569447 83.81840855 -16.43588747 82.12822506 -18 79 C-18.11533432 74.7326301 -17.95564506 71.11491923 -15.125 67.8125 C-9.75007163 64.69504155 -4.36355997 61.57739364 1.265625 58.9375 C3.58935594 57.68142922 4.06821963 56.43696405 5 54 C5.26296875 53.38382813 5.5259375 52.76765625 5.796875 52.1328125 C6.26170265 49.8544272 6.26170265 49.8544272 4.41015625 47.984375 C3.24806641 46.87835938 3.24806641 46.87835938 2.0625 45.75 C-6.28038755 36.96458799 -13.78292502 23.04694184 -14.375 10.75 C-13.98644715 6.86447145 -13.46395832 4.99194939 -11 2 C-7.57080428 -0.57189679 -4.16060514 -0.502142 0 0 Z " fill="#000000" transform="translate(247,163)"/>
<path d="M0 0 C3.57208818 1.99372363 5.47697911 4.61526228 7.8125 7.875 C12.10034055 13.72304716 16.78945627 17.74900634 23.9375 19.5 C32.69781248 20.78199695 38.95046526 17.80674546 46.421875 13.4375 C50.27583982 11.28862264 53.04952606 10 57.5 10 C62.09256759 11.31216217 63.52685544 12.95303618 66 17 C66.71830872 22.1179496 65.95502147 24.84874445 63 29 C54.54137903 35.76971162 44.80114913 40.19991488 34 41 C32.23994184 50.63703975 31.64069889 59.18669403 36.5546875 67.93359375 C38.05278282 70.2365853 38.05278282 70.2365853 40.8125 72.5625 C43.23654975 75.26358401 43.4020317 76.00981457 43.5625 79.5 C43.32872341 83.75048345 42.1522098 86.0332143 39 89 C35.43131191 90.78434405 31.87969172 90.7324858 28 90 C20.03306801 85.53390793 15.20737578 76.82958293 12.125 68.5 C9.63960721 59.31866662 10.17006042 48.26775851 12 39 C11.33355469 38.69449219 10.66710937 38.38898438 9.98046875 38.07421875 C-0.11655481 33.06101125 -9.27405804 25.42400202 -14.3203125 15.12890625 C-15.56325227 11.2357903 -15.18199813 8.93999376 -14 5 C-10.321757 -0.5173645 -6.20691671 -1.19145568 0 0 Z " fill="#000000" transform="translate(401,258)"/>
<path d="M0 0 C4.54875572 4.04333842 5.5456458 10.14844207 6.25 16 C6.24452496 20.30840195 6.0808004 24.61750329 5.859375 28.91992188 C5.8009868 31.3704017 5.79396524 33.59098475 6.25 36 C9.3403818 38.76452522 12.65721307 39.72981885 16.796875 40.140625 C22.77878414 39.79771301 29.08906647 37.63219113 34.3984375 34.890625 C37.60791281 33.34682675 40.82329587 33.37516911 44.25 34 C47.5061101 35.89446406 49.5987671 37.30400843 50.98046875 40.90234375 C51.67664128 44.49349118 51.37115617 46.68116798 50.0625 50.125 C44.72802188 56.95163983 33.52205308 60.27500472 25.32421875 61.40234375 C14.32659774 62.55250623 5.9507449 61.19682763 -3.75 56 C-6.70966669 55.68009403 -6.70966669 55.68009403 -8.3359375 57.3203125 C-9.22152344 58.21363281 -9.22152344 58.21363281 -10.125 59.125 C-15.75380628 64.20440162 -22.78307927 68.46731575 -30.4453125 69.2890625 C-33.95149748 69.04605958 -36.23418181 68.30949091 -39.25 66.5 C-41.42013856 62.8831024 -42.14026185 59.2077323 -41.75 55 C-39.72081234 50.11958151 -36.57308813 48.61099054 -31.9375 46.625 C-24.56544596 43.18897686 -20.18960202 39.65660319 -16.875 32.1875 C-14.78622742 25.87203466 -15.36565747 19.40258418 -16.75 13 C-17.10656769 8.00805229 -16.92650864 4.9706358 -13.75 1 C-9.63187851 -2.08859111 -4.66301581 -1.69564211 0 0 Z " fill="#000000" transform="translate(88.75,136)"/>
<path d="M0 0 C3.29918689 1.63264557 6.11250146 3.72975658 9 6 C9.6084375 6.45632812 10.216875 6.91265625 10.84375 7.3828125 C22.5603925 16.70286904 31.93143234 32.0582925 34 47 C35.4483331 64.15872406 32.41143441 80.34477262 23 95 C20.11672344 97.75573826 18.07042007 99.56565194 14 99.5 C9.96542976 99.30170354 7.83556675 97.92149301 5 95 C3.21237073 91.42474146 3.40746089 87.84878614 4 84 C5.35035844 80.59294177 6.91849286 77.34877046 8.53125 74.05859375 C13.00291115 64.74659727 13.68953158 54.0969209 10.375 44.25 C5.71463725 33.02276247 -1.8377931 24.53284729 -12 18 C-14.6790573 13.98141405 -14.69610694 10.72358279 -14 6 C-10.43888249 0.30221198 -6.62024687 -1.19028411 0 0 Z " fill="#000000" transform="translate(333,170)"/>
<path d="M0 0 C3.65808699 3.19109716 4.72169933 4.86691872 5.875 9.5625 C5.33200645 17.64534682 -2.51320691 25.88104904 -8.0625 31.3125 C-21.95075853 42.78858731 -38.32326373 46.57683427 -56 45 C-64.40977167 43.79282937 -71.84210731 42.13027882 -78 36 C-79.25350011 33.31170844 -79.35043719 30.9356296 -79 28 C-76.96729698 23.93459396 -75.23199669 21.63970352 -71 20 C-68.95703125 19.953125 -68.95703125 19.953125 -66.8125 20.25 C-66.02230469 20.35699219 -65.23210937 20.46398437 -64.41796875 20.57421875 C-62.12041163 20.97879666 -59.88773861 21.49783094 -57.625 22.0625 C-47.70111475 24.31168506 -38.26367402 23.28085309 -29 19 C-22.72883602 14.62680336 -17.97203024 9.12118547 -13.66796875 2.84765625 C-9.78172544 -1.45724559 -5.3375118 -1.52500337 0 0 Z " fill="#000000" transform="translate(285,269)"/>
<path d="M0 0 C8.27395454 6.32950817 12.82212675 13.09426714 16.625 22.75 C17.058125 23.8225 17.49125 24.895 17.9375 26 C19.21515527 31.11062106 19.34322234 34.45719979 16.75 39.125 C14.61903138 41.757373 13.91699253 42.59516396 10.63671875 42.98828125 C9.48623047 43.02501953 9.48623047 43.02501953 8.3125 43.0625 C7.17361328 43.11857422 7.17361328 43.11857422 6.01171875 43.17578125 C2.59765986 42.56672656 1.057962 41.19500637 -1.375 38.75 C-2.81640625 35.7265625 -2.81640625 35.7265625 -3.9375 32.375 C-6.94488732 24.06045857 -9.2472934 19.66871568 -17.375 15.75 C-20.33470148 14.81598666 -22.8384399 14.68101411 -25.9296875 14.828125 C-26.79207031 14.85390625 -27.65445312 14.8796875 -28.54296875 14.90625 C-30.3404637 14.96850091 -32.1374855 15.04650579 -33.93359375 15.140625 C-38.29820741 15.24469925 -41.41034118 15.24043116 -44.94140625 12.484375 C-47.81106396 9.26004049 -48.32881593 7.81111585 -48.546875 3.67578125 C-48.19810656 -0.23201061 -46.27185523 -2.41293512 -43.5 -5 C-31.45240296 -12.08682179 -10.73937803 -7.04670901 0 0 Z " fill="#000000" transform="translate(310.375,85.25)"/>
<path d="M0 0 C3.84262325 1.67070576 5.4730663 3.1410221 7 7 C7.22351216 11.23183025 6.69099922 14.89440125 4.4375 18.5 C1.07175834 20.57122564 -2.1056452 21.19471774 -6 21 C-9.221935 19.8663562 -11.2132039 18.9656134 -13.375 16.3125 C-14.3140585 12.83798354 -14.58977379 9.53864272 -14 6 C-10.25014665 0.12522975 -6.78149684 -0.72891329 0 0 Z " fill="#000000" transform="translate(339,328)"/>
<path d="M0 0 C3 1.4375 3 1.4375 5 4 C6.26413495 8.2348521 6.47545589 11.7134723 4.9375 15.875 C2.41163047 18.64530851 0.58983482 19.84854355 -3 21 C-7.31892913 20.80860237 -10.2110588 19.67060002 -13.5 16.875 C-15.45879797 13.12063723 -15.85564732 10.15240612 -15 6 C-11.00169273 -0.26401473 -7.05396493 -0.82844493 0 0 Z " fill="#000000" transform="translate(236,30)"/>
</svg>
