<?xml version="1.0" encoding="UTF-8"?>
<svg version="1.1" xmlns="http://www.w3.org/2000/svg" width="512" height="512">
<path d="M0 0 C1.45362052 2.6936889 2.36386564 5.09434511 2.94213867 8.09643555 C3.17870178 9.29762779 3.17870178 9.29762779 3.42004395 10.52308655 C3.58435913 11.38558517 3.74867432 12.2480838 3.91796875 13.13671875 C4.28497378 15.00089784 4.65242264 16.8649896 5.02026367 18.72900391 C5.21059174 19.70266907 5.4009198 20.67633423 5.59701538 21.67950439 C9.00328701 39.03143832 12.6957042 56.11465836 18 73 C18.24814453 73.8142041 18.49628906 74.6284082 18.75195312 75.46728516 C28.94273156 108.80471834 45.6979439 138.26628932 77.27734375 155.10546875 C109.24977385 171.56474961 145.34979142 179.42243114 180.59936523 185.50463867 C182.06031616 185.76337769 182.06031616 185.76337769 183.55078125 186.02734375 C184.39294189 186.16906006 185.23510254 186.31077637 186.1027832 186.45678711 C186.72886475 186.63604736 187.35494629 186.81530762 188 187 C188.33 187.66 188.66 188.32 189 189 C188.12827148 189.16491943 187.25654297 189.32983887 186.35839844 189.49975586 C134.75310212 198.63587471 134.75310212 198.63587471 86 217 C85.37706055 217.30631348 84.75412109 217.61262695 84.11230469 217.92822266 C73.34048753 223.23355663 62.7049041 229.05238444 54.2734375 237.7890625 C53 239 53 239 51 239 C50.73445312 239.58910156 50.46890625 240.17820313 50.1953125 240.78515625 C48.96863174 243.05812354 47.6558766 244.57793351 45.875 246.4375 C33.31248856 260.56057186 25.710747 279.21094443 20 297 C19.76603516 297.70946777 19.53207031 298.41893555 19.29101562 299.14990234 C11.00150821 324.43289997 5.70089337 350.84782411 1 377 C0.34 376.67 -0.32 376.34 -1 376 C-1.65704463 373.40680749 -2.18962495 370.87036291 -2.6640625 368.2421875 C-2.98022379 366.58255423 -3.29664117 364.92296972 -3.61328125 363.26342773 C-3.77779785 362.384841 -3.94231445 361.50625427 -4.11181641 360.6010437 C-11.46027298 321.56586411 -19.56786023 278.72680559 -45 247 C-45.63164062 246.18660156 -46.26328125 245.37320313 -46.9140625 244.53515625 C-79.08736408 205.58492519 -141.74026861 197.84833788 -188 189 C-188 188.34 -188 187.68 -188 187 C-186.95062256 186.79955078 -185.90124512 186.59910156 -184.82006836 186.39257812 C-117.89547677 174.74876593 -117.89547677 174.74876593 -59 143 C-58.01902344 142.19949219 -57.03804687 141.39898437 -56.02734375 140.57421875 C-45.14214984 131.18630048 -37.61897181 119.62021892 -31 107 C-30.41476563 105.88496094 -29.82953125 104.76992187 -29.2265625 103.62109375 C-15.37378624 75.57078888 -9.61464541 43.99284045 -3.57617188 13.53295898 C-3.41156464 12.70813019 -3.2469574 11.88330139 -3.07736206 11.03347778 C-2.76619957 9.47115907 -2.45838186 7.9081695 -2.15432739 6.3444519 C-1.11156002 1.11156002 -1.11156002 1.11156002 0 0 Z " fill="#000000" transform="translate(188,4)"/>
<path d="M0 0 C2.10186884 3.60353099 2.84940079 7.38132375 3.6640625 11.421875 C3.97974491 12.92652007 4.29626646 14.43098928 4.61352539 15.93530273 C4.77805206 16.72154022 4.94257874 17.50777771 5.11209106 18.31784058 C13.97008124 60.98401162 13.97008124 60.98401162 41.0625 93.75 C61.99340584 107.21773733 85.7043739 112.45873804 109.87011719 117.04736328 C111.04735352 117.27536621 112.22458984 117.50336914 113.4375 117.73828125 C114.48808594 117.93462158 115.53867187 118.13096191 116.62109375 118.33325195 C117.40613281 118.55327881 118.19117188 118.77330566 119 119 C119.33 119.66 119.66 120.32 120 121 C119.04448242 121.21092285 118.08896484 121.4218457 117.10449219 121.63916016 C64.66797417 131.45803352 64.66797417 131.45803352 24.8828125 164.18359375 C10.93890331 186.78661512 6.46737162 214.44457918 1 240 C0.34 239.67 -0.32 239.34 -1 239 C-1.59792284 236.83073894 -2.08137683 234.62973229 -2.515625 232.421875 C-2.79657598 231.02943213 -3.07766902 229.63701793 -3.35888672 228.24462891 C-3.50388611 227.51093079 -3.6488855 226.77723267 -3.79827881 226.02130127 C-12.44835447 181.43246363 -12.44835447 181.43246363 -40.14453125 146.828125 C-59.48644112 134.44506916 -81.51661079 129.33508709 -103.734375 124.69726562 C-109.17258813 123.53611605 -114.58616336 122.2692833 -120 121 C-117.28018406 118.28018406 -115.05624532 118.22464471 -111.2890625 117.484375 C-109.8943956 117.20339423 -108.49978518 116.92213304 -107.10522461 116.640625 C-106.37351044 116.49560547 -105.64179626 116.35058594 -104.88790894 116.20117188 C-67.52258727 109.34503786 -67.52258727 109.34503786 -35.828125 89.79296875 C-34 88 -34 88 -32 88 C-31.73445313 87.41605469 -31.46890625 86.83210938 -31.1953125 86.23046875 C-29.96658391 83.93764514 -28.58164114 82.26918391 -26.875 80.3125 C-13.27092273 62.97507928 -8.85455188 39.40382026 -4.39453125 18.41015625 C-3.0778429 12.23446316 -1.57366551 6.11475548 0 0 Z " fill="#000000" transform="translate(392,268)"/>
</svg>
