<?xml version="1.0" encoding="UTF-8"?>
<svg version="1.1" xmlns="http://www.w3.org/2000/svg" width="50" height="50">
<path d="M0 0 C5.56340585 3.36669624 9.53349183 8.25193794 11.5 14.4375 C12.30594257 22.2813829 12.59671889 30.02934467 7.5 36.4375 C3.04867668 41.14197914 -1.19064516 44.09747071 -7.76953125 44.7734375 C-16.04371997 44.8646634 -22.08428015 44.61560264 -28.2421875 38.7890625 C-34.17397269 32.28964236 -34.96296445 26.57688134 -34.80859375 17.88671875 C-34.22339005 11.3457711 -31.85547257 7.43687235 -27.0625 3.0625 C-19.84507341 -2.93248543 -8.52200107 -3.84066973 0 0 Z M-27.875 9 C-32.43649379 14.47623185 -32.12226676 20.59256568 -31.5 27.4375 C-29.77883043 33.09869631 -25.25380196 37.15064853 -20.5 40.4375 C-15.0029273 42.26985757 -8.53352755 42.6147627 -3.07421875 40.49609375 C2.22187345 37.31444891 6.09461411 33.17185878 8.5 27.4375 C9.43256519 20.56596704 9.16717526 14.80751171 5 9.125 C1.23402845 4.888282 -2.30028498 1.7228547 -8.171875 1.19921875 C-17.12574998 0.98332583 -21.76625484 2.19969878 -27.875 9 Z " fill="#000000" transform="translate(36.5,3.5625)"/>
<path d="M0 0 C3.0625 1.5625 3.0625 1.5625 5 3 C5.66 2.67 6.32 2.34 7 2 C7 4.31 7 6.62 7 9 C4.69 9 2.38 9 0 9 C0.33 8.01 0.66 7.02 1 6 C-2.70008163 3.53327891 -5.70702078 3.329222 -10 4 C-13.62103911 6.04667428 -14.7516513 7.38504131 -16.3125 11.25 C-16.539375 12.1575 -16.76625 13.065 -17 14 C-17.99 14 -18.98 14 -20 14 C-20.4552667 10.88901085 -20.49460395 8.77252426 -18.76953125 6.078125 C-13.35394592 -0.39383376 -8.23772997 -0.73572698 0 0 Z " fill="#000000" transform="translate(31,11)"/>
<path d="M0 0 C0.99 0 1.98 0 3 0 C2.58675744 5.2688427 1.77055562 8.22944438 -2 12 C-6.65847489 14.89635612 -11.68845072 14.55164458 -17 14 C-20.0625 12.4375 -20.0625 12.4375 -22 11 C-22.99 11.495 -22.99 11.495 -24 12 C-24 9.69 -24 7.38 -24 5 C-21.69 5 -19.38 5 -17 5 C-17.33 5.99 -17.66 6.98 -18 8 C-14.29991837 10.46672109 -11.29297922 10.670778 -7 10 C-3.37896089 7.95332572 -2.2483487 6.61495869 -0.6875 2.75 C-0.460625 1.8425 -0.23375 0.935 0 0 Z " fill="#000000" transform="translate(36,25)"/>
</svg>
