<?xml version="1.0" encoding="UTF-8"?>
<svg version="1.1" xmlns="http://www.w3.org/2000/svg" width="512" height="512">
<path d="M0 0 C0.6581369 0.00021149 1.3162738 0.00042297 1.99435425 0.00064087 C27.52324412 0.08229431 52.12926151 8.3707698 71.4375 25.375 C72.25605469 26.05046875 73.07460938 26.7259375 73.91796875 27.421875 C92.89456734 43.54462853 105.41923492 67.72181945 108.4375 92.375 C108.94226556 99.85016276 108.7889672 107.35266401 108.73046875 114.83984375 C108.72486062 116.97074584 108.72059629 119.10165184 108.71760559 121.2325592 C108.70625259 126.79079213 108.67686954 132.34878291 108.64349365 137.90692139 C108.6125849 143.59872158 108.59905616 149.29056161 108.58398438 154.98242188 C108.5519891 166.11338655 108.50091082 177.244173 108.4375 188.375 C108.99745163 188.36611755 109.55740326 188.35723511 110.13432312 188.3480835 C116.02409534 188.2587841 121.9136717 188.1989278 127.80395508 188.15527344 C129.9947899 188.13530258 132.18557243 188.10811622 134.3762207 188.07324219 C155.06970859 187.75233975 171.51840329 190.16435582 187.15625 205.03515625 C198.49217167 216.66224029 204.76438555 230.56518278 204.70492554 246.82939148 C204.70945665 247.74993736 204.71398776 248.67048323 204.71865618 249.61892444 C204.73126202 252.68700079 204.72968227 255.75489875 204.72802734 258.82299805 C204.73401503 261.02966031 204.74082113 263.23632048 204.74838257 265.44297791 C204.76602666 271.42666852 204.77073732 277.41030191 204.77201414 283.39401603 C204.77343735 287.13633361 204.77771022 290.87863672 204.78300858 294.6209507 C204.80055073 307.01411893 204.80984947 319.40725938 204.80834763 331.80043855 C204.80826772 332.46756092 204.8081878 333.13468329 204.80810547 333.82202148 C204.80802371 334.48996638 204.80794195 335.15791127 204.80785771 335.84609691 C204.80704546 346.66183118 204.82617069 357.47742597 204.8543822 368.29311993 C204.88317615 379.42067409 204.89655342 390.54817081 204.89519465 401.67576438 C204.89468586 407.91415741 204.9003233 414.15239257 204.92155075 420.39075279 C204.940984 426.26200767 204.94102265 432.13295493 204.92651749 438.00422096 C204.92443452 440.15153582 204.9290995 442.29887018 204.9412384 444.44615173 C205.04571688 464.21803721 201.93020208 480.21087735 187.77734375 495.09375 C174.91350391 507.63545696 160.4991095 512.68913319 142.79414368 512.64242554 C141.5305794 512.64695665 140.26701513 512.65148776 138.96516103 512.65615618 C135.47381938 512.66834312 131.98257387 512.66813083 128.49121583 512.66576743 C124.71941485 512.66535817 120.94764425 512.67640891 117.17585754 512.68588257 C109.79178636 512.7024703 102.40774711 512.70799112 95.02365885 512.70910732 C89.01852153 512.71005893 83.01339472 512.71417487 77.00826073 512.72050858 C59.9667404 512.73811555 42.92524522 512.74734839 25.88371573 512.74584763 C24.50667073 512.74572776 24.50667073 512.74572776 23.10180664 512.74560547 C21.72307184 512.74548283 21.72307184 512.74548283 20.31648382 512.74535771 C5.42685431 512.74454515 -9.46267396 512.7636767 -24.3522742 512.7918822 C-39.65635539 512.82064308 -54.96038726 512.83442071 -70.26449615 512.83269465 C-78.85030603 512.83203182 -87.4360098 512.83747721 -96.02179527 512.85905075 C-103.33315158 512.87730485 -110.64435367 512.88157536 -117.95572295 512.8680319 C-121.68196234 512.86152325 -125.40790625 512.86130816 -129.13411713 512.8787384 C-133.18437435 512.89748857 -137.23395404 512.88485985 -141.28422546 512.86947632 C-142.44709554 512.87976344 -143.60996561 512.89005057 -144.80807418 512.90064943 C-160.78818 512.76713005 -174.75333559 506.67730666 -186.28125 495.71484375 C-197.61717167 484.08775971 -203.88938555 470.18481722 -203.82992554 453.92060852 C-203.83445665 453.00006264 -203.83898776 452.07951677 -203.84365618 451.13107556 C-203.85626202 448.06299921 -203.85468227 444.99510125 -203.85302734 441.92700195 C-203.85901503 439.72033969 -203.86582113 437.51367952 -203.87338257 435.30702209 C-203.89102666 429.32333148 -203.89573732 423.33969809 -203.89701414 417.35598397 C-203.89843735 413.61366639 -203.90271022 409.87136328 -203.90800858 406.1290493 C-203.92555073 393.73588107 -203.93484947 381.34274062 -203.93334763 368.94956145 C-203.93326772 368.28243908 -203.9331878 367.61531671 -203.93310547 366.92797852 C-203.93302371 366.26003362 -203.93294195 365.59208873 -203.93285771 364.90390309 C-203.93204546 354.08816882 -203.95117069 343.27257403 -203.9793822 332.45688007 C-204.00817615 321.32932591 -204.02155342 310.20182919 -204.02019465 299.07423562 C-204.01968586 292.83584259 -204.0253233 286.59760743 -204.04655075 280.35924721 C-204.065984 274.48799233 -204.06602265 268.61704507 -204.05151749 262.74577904 C-204.04943452 260.59846418 -204.0540995 258.45112982 -204.0662384 256.30384827 C-204.17071688 236.53196279 -201.05520208 220.53912265 -186.90234375 205.65625 C-174.73783005 193.79635685 -160.61994988 187.99887789 -143.71875 188.1796875 C-142.70905151 188.1825174 -141.69935303 188.18534729 -140.65905762 188.18826294 C-137.46008033 188.1993847 -134.2613915 188.22447437 -131.0625 188.25 C-128.88281657 188.26004015 -126.70312871 188.26916418 -124.5234375 188.27734375 C-119.20302795 188.29929775 -113.88278459 188.33269482 -108.5625 188.375 C-108.56694122 187.36483322 -108.57138245 186.35466644 -108.57595825 185.31388855 C-108.61681874 175.71017938 -108.64663332 166.10648825 -108.66612434 156.5027113 C-108.67648227 151.56744399 -108.69049198 146.63224785 -108.71337891 141.69702148 C-108.7353967 136.91832612 -108.74712837 132.13969843 -108.75225449 127.36095619 C-108.7558991 125.55406952 -108.76301268 123.74718578 -108.77396011 121.9403286 C-108.98430024 85.72420716 -100.88887285 55.28453217 -75.0625 28.8125 C-54.77197822 9.58990042 -27.66133383 -0.03691694 0 0 Z M-47.765625 60.515625 C-62.36702437 75.44331262 -67.77416034 92.52778038 -67.67602539 113.10766602 C-67.67614593 113.94137443 -67.67626646 114.77508284 -67.67639065 115.63405514 C-67.67565178 118.29903386 -67.66807095 120.96394024 -67.66015625 123.62890625 C-67.65868365 125.28771938 -67.6576649 126.94653299 -67.65710449 128.60534668 C-67.65188852 134.7160716 -67.63792728 140.82678653 -67.625 146.9375 C-67.604375 160.611875 -67.58375 174.28625 -67.5625 188.375 C-23.0125 188.375 21.5375 188.375 67.4375 188.375 C67.52 173.298125 67.6025 158.22125 67.6875 142.6875 C67.72391602 137.95059814 67.76033203 133.21369629 67.79785156 128.33325195 C67.81124035 124.037077 67.81124035 124.037077 67.8192749 119.7408905 C67.82536325 117.84725673 67.83931786 115.95363714 67.85980225 114.06010437 C67.97567211 102.77182644 67.82783778 92.94468216 63.4375 82.375 C63.00262268 81.3216597 62.56774536 80.2683194 62.11968994 79.18305969 C55.53952867 64.00759704 41.69459762 52.08080237 26.73046875 45.625 C0.57169973 35.69521816 -27.67811727 40.92906906 -47.765625 60.515625 Z M-157.5625 234.375 C-163.13848854 241.42787199 -163.71397395 247.94666161 -163.69621277 256.787323 C-163.69847833 257.6198497 -163.70074388 258.45237641 -163.70307809 259.31013119 C-163.70939411 262.09202225 -163.70859027 264.87386429 -163.70776367 267.65576172 C-163.71075664 269.65349388 -163.71415949 271.65122547 -163.71794128 273.6489563 C-163.72677099 279.07045595 -163.72911895 284.49193981 -163.72975707 289.91344595 C-163.7304681 293.30159386 -163.73260342 296.68973776 -163.73525429 300.07788467 C-163.74450395 311.90072128 -163.7485896 323.72354661 -163.74780273 335.54638672 C-163.74720188 346.56288726 -163.75775626 357.57933884 -163.7735464 368.59582698 C-163.78662548 378.0584174 -163.79198648 387.52099182 -163.79134732 396.9835912 C-163.79109247 402.6332726 -163.79393701 408.28291047 -163.80452538 413.93258286 C-163.81421264 419.24641738 -163.81428118 424.56016682 -163.80700874 429.87400436 C-163.80596372 431.82184473 -163.80832088 433.76969041 -163.8143692 435.71752167 C-163.8221037 438.38135066 -163.81743468 441.04488688 -163.80973816 443.70870972 C-163.81488172 444.47506772 -163.82002529 445.24142572 -163.82532471 446.03100669 C-163.77723276 453.59012252 -162.58028295 460.43288862 -157.5625 466.375 C-149.58032197 472.6856963 -141.78672002 472.52257481 -131.96121216 472.50871277 C-130.78566706 472.51097833 -129.61012195 472.51324388 -128.39895427 472.51557809 C-125.1442914 472.52080741 -121.88966333 472.52156398 -118.63499761 472.52038372 C-115.12162078 472.52017939 -111.60825215 472.52570144 -108.09487915 472.53044128 C-101.21487442 472.53874132 -94.33487825 472.54149582 -87.45486893 472.54205366 C-81.8620203 472.54252909 -76.26917449 472.54458518 -70.67632675 472.54775429 C-54.81509133 472.55655877 -38.95386268 472.56117394 -23.0926248 472.56042381 C-22.23786428 472.56038386 -21.38310376 472.5603439 -20.50244141 472.56030273 C-19.21873306 472.56024141 -19.21873306 472.56024141 -17.90909122 472.56017885 C-4.03769975 472.55977235 9.83366457 472.56934353 23.70504819 472.5834411 C37.95247505 472.59780647 52.19988868 472.60471121 66.44732296 472.60384732 C74.44443542 472.60351543 82.44151941 472.60625926 90.43862534 472.61702538 C97.24691887 472.62613244 104.05517104 472.6283039 110.86346804 472.62151595 C114.33583668 472.61825191 117.80812597 472.6181899 121.28048706 472.6268692 C125.04781074 472.63457225 128.81492577 472.62995526 132.58224487 472.62223816 C133.67544253 472.62738172 134.76864019 472.63252529 135.89496505 472.63782471 C144.30287177 472.59974663 151.75140608 472.02103487 158.4375 466.375 C164.01348854 459.32212801 164.58897395 452.80333839 164.57121277 443.962677 C164.57347833 443.1301503 164.57574388 442.29762359 164.57807809 441.43986881 C164.58439411 438.65797775 164.58359027 435.87613571 164.58276367 433.09423828 C164.58575664 431.09650612 164.58915949 429.09877453 164.59294128 427.1010437 C164.60177099 421.67954405 164.60411895 416.25806019 164.60475707 410.83655405 C164.6054681 407.44840614 164.60760342 404.06026224 164.61025429 400.67211533 C164.61950395 388.84927872 164.6235896 377.02645339 164.62280273 365.20361328 C164.62220188 354.18711274 164.63275626 343.17066116 164.6485464 332.15417302 C164.66162548 322.6915826 164.66698648 313.22900818 164.66634732 303.7664088 C164.66609247 298.1167274 164.66893701 292.46708953 164.67952538 286.81741714 C164.68921264 281.50358262 164.68928118 276.18983318 164.68200874 270.87599564 C164.68096372 268.92815527 164.68332088 266.98030959 164.6893692 265.03247833 C164.6971037 262.36864934 164.69243468 259.70511312 164.68473816 257.04129028 C164.6924535 255.89175328 164.6924535 255.89175328 164.70032471 254.71899331 C164.65223276 247.15987748 163.45528295 240.31711138 158.4375 234.375 C150.45532197 228.0643037 142.66172002 228.22742519 132.83621216 228.24128723 C131.66066706 228.23902167 130.48512195 228.23675612 129.27395427 228.23442191 C126.0192914 228.22919259 122.76466333 228.22843602 119.50999761 228.22961628 C115.99662078 228.22982061 112.48325215 228.22429856 108.96987915 228.21955872 C102.08987442 228.21125868 95.20987825 228.20850418 88.32986893 228.20794634 C82.7370203 228.20747091 77.14417449 228.20541482 71.55132675 228.20224571 C55.69009133 228.19344123 39.82886268 228.18882606 23.9676248 228.18957619 C23.11286428 228.18961614 22.25810376 228.1896561 21.37744141 228.18969727 C20.52163584 228.18973815 19.66583028 228.18977903 18.78409122 228.18982115 C4.91269975 228.19022765 -8.95866457 228.18065647 -22.83004819 228.1665589 C-37.07747505 228.15219353 -51.32488868 228.14528879 -65.57232296 228.14615268 C-73.56943542 228.14648457 -81.56651941 228.14374074 -89.56362534 228.13297462 C-96.37191887 228.12386756 -103.18017104 228.1216961 -109.98846804 228.12848405 C-113.46083668 228.13174809 -116.93312597 228.1318101 -120.40548706 228.1231308 C-124.17281074 228.11542775 -127.93992577 228.12004474 -131.70724487 228.12776184 C-132.80044253 228.12261828 -133.89364019 228.11747471 -135.01996505 228.11217529 C-143.42787177 228.15025337 -150.87640608 228.72896513 -157.5625 234.375 Z " fill="#000000" transform="translate(255.5625,-0.375)"/>
<path d="M0 0 C9.39614585 5.67803906 15.70726826 13.838908 18.546875 24.5390625 C20.0490374 38.25758575 18.10150271 48.621178 9.42578125 59.53125 C7.546875 61.5390625 7.546875 61.5390625 4.96044922 62.97631836 C1.1476358 67.02478108 1.93412648 71.19449689 2.05078125 76.55078125 C2.04895014 78.77539073 2.04699301 81.00000011 2.04492188 83.22460938 C2.07212773 86.72240019 2.10929341 90.21989584 2.15209961 93.7175293 C2.18486807 97.09985622 2.18152863 100.48083302 2.17578125 103.86328125 C2.20056046 104.89797043 2.22533966 105.93265961 2.25086975 106.998703 C2.22528674 114.36559462 0.41449106 118.97925583 -4.453125 124.5390625 C-9.82043231 129.12363749 -15.04448941 129.26536615 -22 129.05078125 C-28.00312886 128.16117731 -32.0818456 125.49984991 -35.8515625 120.79296875 C-40.02811233 114.14307204 -39.56578466 106.86282057 -39.5234375 99.3203125 C-39.53201767 97.31639755 -39.54249206 95.31248996 -39.5546875 93.30859375 C-39.57140645 90.16788993 -39.57804271 87.02885054 -39.55273438 83.88818359 C-39.53176092 80.84369652 -39.55499902 77.8021586 -39.5859375 74.7578125 C-39.56854523 73.82328247 -39.55115295 72.88875244 -39.53323364 71.92590332 C-39.5924456 66.90619289 -39.5924456 66.90619289 -42.00157166 62.66259766 C-43.84080538 61.04993364 -43.84080538 61.04993364 -45.76429749 59.74255371 C-48.12559936 58.05984424 -49.34453861 56.0369721 -50.765625 53.5390625 C-51.23613281 52.7346875 -51.70664063 51.9303125 -52.19140625 51.1015625 C-56.73817713 41.86725384 -57.02012784 30.91900264 -54.578125 20.9765625 C-50.43395009 10.28895353 -43.70983238 3.51681539 -33.453125 -1.4609375 C-23.12514367 -5.69992561 -9.90301547 -4.89679494 0 0 Z " fill="#000000" transform="translate(274.453125,289.4609375)"/>
</svg>
