<?xml version="1.0" encoding="UTF-8"?>
<svg version="1.1" xmlns="http://www.w3.org/2000/svg" width="512" height="512">
<path d="M0 0 C3.10700271 2.25109418 6.13385455 4.59984078 9.16259766 6.95458984 C10.84875183 8.24281164 12.53634383 9.52915288 14.22509766 10.81396484 C16.95847255 12.89434207 19.69068384 14.9760962 22.41796875 17.06445312 C28.3725075 21.61982034 34.39607618 26.04015924 40.52197266 30.36083984 C48.15830199 35.76662625 55.64260515 41.38878211 63.16259766 46.95458984 C63.14165039 45.79934814 63.12070312 44.64410645 63.09912109 43.45385742 C63.02659367 39.15824837 62.98075173 34.86269319 62.94287109 30.56665039 C62.9227846 28.70913586 62.89550987 26.85168434 62.86083984 24.99438477 C62.81219028 22.32080521 62.78959956 19.64806328 62.77197266 16.97412109 C62.75132751 16.14685013 62.73068237 15.31957916 62.70941162 14.46723938 C62.70784723 10.42617959 62.84792287 8.45180028 65.06201172 4.95336914 C69.09353663 1.11723543 73.1097315 1.79994863 78.39819336 1.79345703 C79.35605743 1.78849213 80.31392151 1.78352722 81.30081177 1.77841187 C84.48000804 1.76376771 87.6591544 1.75698427 90.83837891 1.75146484 C93.04314679 1.74571498 95.24791465 1.73995723 97.4526825 1.73419189 C102.08051792 1.7236753 106.70833594 1.71783703 111.33618164 1.71435547 C117.26807952 1.70887125 123.19974781 1.68484738 129.13157368 1.65638351 C133.6877459 1.63776494 138.24386275 1.63255193 142.80006981 1.63101959 C144.98695315 1.62799047 147.17383545 1.61995323 149.36068153 1.60683441 C152.42023833 1.58979149 155.47923344 1.59165009 158.53881836 1.59814453 C159.443423 1.58892975 160.34802765 1.57971497 161.28004456 1.57022095 C166.05030196 1.60196144 169.31043585 1.8062463 173.16259766 4.95458984 C174.69781479 8.0250241 174.36720413 11.25887589 174.40087891 14.63037109 C174.40895065 15.3925444 174.4170224 16.15471771 174.42533875 16.93998718 C174.43917741 18.55477627 174.44990055 20.16959459 174.45776367 21.78442383 C174.47495958 24.24731317 174.51884273 26.7088539 174.56298828 29.17138672 C174.573117 30.74103832 174.58163255 32.31070132 174.58837891 33.88037109 C174.60588699 34.61387283 174.62339508 35.34737457 174.64143372 36.10310364 C174.62593378 39.7794164 174.26582629 41.79373659 172.26098633 44.91772461 C170.16259766 46.95458984 170.16259766 46.95458984 168.16259766 47.61865234 C167.17259766 47.59931641 167.17259766 47.59931641 166.16259766 47.57958984 C165.17259766 47.59892578 165.17259766 47.59892578 164.16259766 47.61865234 C162.16259766 46.95458984 162.16259766 46.95458984 158.16259766 41.95458984 C158.16259766 34.03458984 158.16259766 26.11458984 158.16259766 17.95458984 C132.09259766 17.95458984 106.02259766 17.95458984 79.16259766 17.95458984 C76.53104559 42.00509963 76.53104559 42.00509963 83.79150391 65.36865234 C87.66321962 68.49598338 91.97916818 70.63675164 96.50634766 72.66455078 C100.9343097 74.81504264 104.65816895 77.82933436 108.53759766 80.82958984 C110.10960395 81.99144347 111.68385448 83.15026632 113.26025391 84.30615234 C119.43910229 88.88428226 125.53528863 93.57014418 131.64038086 98.24584961 C137.82445506 102.96910974 144.08589237 107.5563283 150.44775391 112.03662109 C152.71715936 113.63989891 154.94439643 115.2819886 157.16259766 116.95458984 C157.1684639 116.38718079 157.17433014 115.81977173 157.18037415 115.23516846 C157.24430259 109.33011541 157.32872062 103.42560765 157.42504883 97.52099609 C157.45830553 95.31729318 157.48633512 93.11350493 157.5090332 90.90966797 C157.54256503 87.7419803 157.59488101 84.57507515 157.65087891 81.40771484 C157.65726883 80.42216614 157.66365875 79.43661743 157.67024231 78.42120361 C157.69993355 77.04022491 157.69993355 77.04022491 157.73022461 75.63134766 C157.74132767 74.82304504 157.75243073 74.01474243 157.76387024 73.1819458 C158.26542049 70.38020485 159.20791321 69.0049034 161.16259766 66.95458984 C165.13603927 65.85085606 167.25259537 65.53915402 171.03759766 67.26708984 C173.16259766 68.95458984 173.16259766 68.95458984 174.16259766 70.95458984 C174.25379436 72.8644093 174.28012303 74.7774617 174.27612305 76.68945312 C174.27604752 77.89054718 174.27597198 79.09164124 174.27589417 80.32913208 C174.27073288 81.63123627 174.26557159 82.93334045 174.26025391 84.27490234 C174.25838904 85.61725817 174.25696546 86.95961468 174.25596619 88.30197144 C174.25214644 91.83654659 174.24232078 95.37108071 174.23126221 98.90563965 C174.22103643 102.51179448 174.21646606 106.11795594 174.21142578 109.72412109 C174.20069803 116.80096081 174.1836281 123.87777265 174.16259766 130.95458984 C174.94802948 131.25798279 175.7334613 131.56137573 176.54269409 131.8739624 C179.0731035 132.91767633 180.79821705 134.0177281 182.92041016 135.72021484 C183.6189209 136.27362549 184.31743164 136.82703613 185.03710938 137.3972168 C186.15110107 138.29186646 186.15110107 138.29186646 187.28759766 139.20458984 C193.78732229 144.34535414 200.35194524 149.37036652 207.03759766 154.26708984 C207.83198242 154.85071289 208.62636719 155.43433594 209.44482422 156.03564453 C212.90526274 158.5757997 216.37179365 161.10693089 219.85009766 163.62255859 C232.01976946 172.52610524 232.01976946 172.52610524 234.16259766 178.95458984 C235.2233216 188.52795907 233.9260285 194.34934448 228.16259766 201.95458984 C227.4382251 202.93081299 227.4382251 202.93081299 226.69921875 203.92675781 C209.62890439 226.91890069 209.62890439 226.91890069 203.16259766 228.95458984 C190.22063883 230.41695807 183.20342104 225.30844598 173.35009766 217.57958984 C171.48257879 216.13562518 169.61406895 214.69294137 167.74462891 213.25146484 C166.8095752 212.52894531 165.87452148 211.80642578 164.91113281 211.06201172 C160.82635947 207.9300377 156.68830116 204.8733812 152.53759766 201.82958984 C151.3781665 200.9783252 151.3781665 200.9783252 150.1953125 200.10986328 C148.63679647 198.96640981 147.07787823 197.82350436 145.51855469 196.68115234 C141.50000236 193.73615731 137.48704034 190.7835804 133.47509766 187.82958984 C132.68345215 187.24677246 131.89180664 186.66395508 131.07617188 186.06347656 C125.43399839 181.90442865 119.82126821 177.7076762 114.22045898 173.49316406 C109.05863076 169.61393306 103.86501842 165.77916241 98.66259766 161.95458984 C92.15457373 157.17019986 85.67529708 152.35046426 79.22119141 147.49365234 C74.05905064 143.61434974 68.86525481 139.77933619 63.66259766 135.95458984 C57.15457373 131.17019986 50.67529708 126.35046426 44.22119141 121.49365234 C39.05905064 117.61434974 33.86525481 113.77933619 28.66259766 109.95458984 C22.16260644 105.17610513 15.6905224 100.36336242 9.24536133 95.51123047 C3.04625368 90.85120626 -3.20026722 86.25625027 -9.45654297 81.67333984 C-13.31483277 78.84108633 -17.13074238 75.98528576 -20.83740234 72.95458984 C-23.69993591 74.30175803 -26.18027039 75.83232041 -28.71630859 77.72021484 C-29.46251465 78.27306152 -30.2087207 78.8259082 -30.97753906 79.39550781 C-32.17660889 80.29100342 -32.17660889 80.29100342 -33.39990234 81.20458984 C-35.12245288 82.48337808 -36.84511209 83.76201996 -38.56787109 85.04052734 C-39.44620605 85.69375977 -40.32454102 86.34699219 -41.22949219 87.02001953 C-43.67223492 88.83206722 -46.12187587 90.63412778 -48.57568359 92.43115234 C-57.91669879 99.27467506 -67.15925996 106.23370763 -76.35253906 113.27441406 C-81.64893287 117.31973769 -86.99842529 121.25865616 -92.4519043 125.08837891 C-97.85151796 128.90694266 -103.08931901 132.93141501 -108.33740234 136.95458984 C-115.18914676 142.2059976 -122.08272518 147.34872739 -129.15771484 152.29443359 C-132.13851491 154.40997598 -135.01618355 156.64016378 -137.89208984 158.89599609 C-139.22614868 159.9313147 -139.22614868 159.9313147 -140.5871582 160.98754883 C-142.34363099 162.35472253 -144.08979819 163.73526842 -145.82397461 165.13061523 C-149.60806795 168.05995577 -151.94204969 169.82591641 -156.75146484 170.51708984 C-160.91978583 169.75729463 -162.38611524 168.37153551 -164.83740234 164.95458984 C-165.46240234 161.95458984 -165.46240234 161.95458984 -164.83740234 158.95458984 C-161.5968237 155.38416658 -158.04221721 152.43239747 -154.21240234 149.51708984 C-153.66173096 149.09733887 -153.11105957 148.67758789 -152.54370117 148.24511719 C-146.76179857 143.85797525 -140.90954965 139.5649493 -135.05957031 135.26928711 C-129.96327472 131.52671084 -124.88889392 127.75739094 -119.83740234 123.95458984 C-113.22611065 118.97927887 -106.57036373 114.06646194 -99.90380859 109.16552734 C-94.86132896 105.45517766 -89.83970961 101.71889522 -84.83740234 97.95458984 C-78.32414127 93.05333642 -71.76812257 88.21247982 -65.19824219 83.38745117 C-60.1203797 79.6527023 -55.07174941 75.88164086 -50.04003906 72.08496094 C-45.98317363 69.02713416 -41.91173478 65.98908178 -37.83740234 62.95458984 C-37.16322266 62.44895508 -36.48904297 61.94332031 -35.79443359 61.42236328 C-34.02797728 60.1048054 -32.24878863 58.80743353 -30.46240234 57.51708984 C-29.50591797 56.81712891 -28.54943359 56.11716797 -27.56396484 55.39599609 C-24.20326165 53.61934927 -22.5932546 53.31059515 -18.83740234 53.95458984 C-16.10625599 55.34678013 -13.72140458 57.11615931 -11.27490234 58.95458984 C-10.54456787 59.48640869 -9.8142334 60.01822754 -9.06176758 60.56616211 C-2.20164173 65.59442482 4.54531734 70.77919546 11.29174805 75.95849609 C16.84968568 80.22051005 22.46395934 84.38295314 28.16259766 88.45458984 C35.77081777 93.89158616 43.20746842 99.53369577 50.62744141 105.22412109 C55.93943439 109.28854113 61.30368068 113.24482706 66.77685547 117.08813477 C73.12288748 121.57627017 79.25659 126.34347789 85.42431641 131.07177734 C90.28025325 134.785553 95.15958444 138.44157814 100.16259766 141.95458984 C107.06406317 146.80065522 113.73258379 151.94176451 120.42431641 157.07177734 C125.28025325 160.785553 130.15958444 164.44157814 135.16259766 167.95458984 C142.06106371 172.79854906 148.72687161 177.9371766 155.41552734 183.06518555 C161.41508663 187.65381774 167.48901419 192.09383077 173.67431641 196.42724609 C176.38711364 198.35770402 179.00771877 200.38590399 181.61962891 202.45068359 C182.38436523 203.05178955 183.14910156 203.65289551 183.93701172 204.2722168 C185.43029939 205.45177384 186.91576504 206.64132124 188.39208984 207.84204102 C189.07045898 208.37676025 189.74882812 208.91147949 190.44775391 209.46240234 C191.04467041 209.94338379 191.64158691 210.42436523 192.2565918 210.91992188 C194.81895425 212.3108905 196.28829786 212.45365453 199.16259766 211.95458984 C201.28952367 210.07499229 201.28952367 210.07499229 203.08056641 207.46630859 C203.77730469 206.53238281 204.47404297 205.59845703 205.19189453 204.63623047 C205.90410156 203.64816406 206.61630859 202.66009766 207.35009766 201.64208984 C208.07390625 200.665625 208.79771484 199.68916016 209.54345703 198.68310547 C215.6244012 191.57350979 215.6244012 191.57350979 217.16259766 182.95458984 C215.46474021 180.96040059 215.46474021 180.96040059 213.06103516 179.31787109 C212.18576172 178.66367188 211.31048828 178.00947266 210.40869141 177.33544922 C209.46123047 176.65289062 208.51376953 175.97033203 207.53759766 175.26708984 C206.08933594 174.19491211 206.08933594 174.19491211 204.61181641 173.10107422 C198.97395655 168.94230577 193.28428194 164.85177011 187.55273438 160.82299805 C181.20339338 156.33690947 175.06976951 151.56659429 168.90087891 146.83740234 C164.04493739 143.12362312 159.16554469 139.46769981 154.16259766 135.95458984 C148.29592131 131.83361174 142.6013005 127.50479289 136.91259766 123.14208984 C130.3973299 118.14611914 123.84250934 113.2283047 117.16259766 108.45458984 C109.55443374 103.0175112 102.1177302 97.37548645 94.69775391 91.68505859 C89.38576092 87.62063856 84.02151463 83.66435263 78.54833984 79.82104492 C72.20230784 75.33290951 66.06860531 70.56570179 59.90087891 65.83740234 C55.04494206 62.12362669 50.16561088 58.46760155 45.16259766 54.95458984 C39.210119 50.77488328 33.43460912 46.3794413 27.66259766 41.95458984 C20.72247983 36.63508532 13.73423958 31.42997821 6.57666016 26.40771484 C4.00107081 24.58302174 1.49392331 22.68433523 -1.00146484 20.75146484 C-1.71262451 20.20393555 -2.42378418 19.65640625 -3.15649414 19.09228516 C-4.52689204 18.03286035 -5.89083793 16.9650137 -7.24682617 15.88720703 C-12.42515454 11.89578694 -16.96887744 9.95458984 -23.64990234 9.95458984 C-33.44716437 11.68351844 -41.39511576 19.60990309 -48.96655273 25.58081055 C-53.45180913 29.11673779 -57.97125922 32.554259 -62.64990234 35.82958984 C-68.66694677 40.04901104 -74.50602925 44.48275087 -80.33740234 48.95458984 C-86.63340533 53.78139556 -92.95844183 58.52868537 -99.45068359 63.08740234 C-104.85054977 66.90651144 -110.08895291 70.93102606 -115.33740234 74.95458984 C-121.63348763 79.78129172 -127.95843779 84.52868253 -134.45068359 89.08740234 C-139.85054977 92.90651144 -145.08895291 96.93102606 -150.33740234 100.95458984 C-156.63348763 105.78129172 -162.95843779 110.52868253 -169.45068359 115.08740234 C-174.85054977 118.90651144 -180.08895291 122.93102606 -185.33740234 126.95458984 C-191.63348763 131.78129172 -197.95843779 136.52868253 -204.45068359 141.08740234 C-209.85055201 144.90651302 -215.0889138 148.93107355 -220.33740234 152.95458984 C-226.21503503 157.45971418 -232.10069211 161.9319036 -238.14990234 166.20458984 C-239.75671875 167.34734375 -239.75671875 167.34734375 -241.39599609 168.51318359 C-243.25282081 169.83304211 -245.11289879 171.14765725 -246.97851562 172.45507812 C-249.23485735 174.04330575 -251.47438757 175.65317248 -253.71240234 177.26708984 C-254.42178955 177.75918945 -255.13117676 178.25128906 -255.86206055 178.75830078 C-256.51134521 179.23170898 -257.16062988 179.70511719 -257.82958984 180.19287109 C-258.4107959 180.60577393 -258.99200195 181.01867676 -259.59082031 181.4440918 C-261.03671908 182.94075777 -261.03671908 182.94075777 -261.23974609 185.31616211 C-260.72775965 188.6735878 -259.50442307 190.2703212 -257.40771484 192.93115234 C-256.69486328 193.84896484 -255.98201172 194.76677734 -255.24755859 195.71240234 C-254.11640625 197.13166016 -254.11640625 197.13166016 -252.96240234 198.57958984 C-251.48541416 200.46727768 -250.00883343 202.35528442 -248.53271484 204.24365234 C-247.54295654 205.49202881 -247.54295654 205.49202881 -246.53320312 206.765625 C-245.2327007 208.44433285 -244.01532315 210.18770864 -242.83740234 211.95458984 C-239.96290716 212.38583786 -238.38292422 212.26218338 -235.83959961 210.828125 C-235.20078857 210.30524902 -234.56197754 209.78237305 -233.90380859 209.24365234 C-233.17983887 208.66341309 -232.45586914 208.08317383 -231.70996094 207.48535156 C-230.56648193 206.54199951 -230.56648193 206.54199951 -229.39990234 205.57958984 C-227.78056369 204.28052402 -226.15945322 202.98366388 -224.53662109 201.68896484 C-223.73788574 201.04894531 -222.93915039 200.40892578 -222.11621094 199.74951172 C-219.05308124 197.33681303 -215.90577554 195.06555704 -212.71240234 192.82958984 C-206.70794735 188.61189099 -200.8343004 184.23561662 -194.98925781 179.79980469 C-187.67602281 174.26769332 -187.67602281 174.26769332 -181.83740234 174.95458984 C-178.50861603 177.41499712 -177.04438287 178.85069372 -176.27490234 182.95458984 C-177.54873672 189.74837319 -183.45607 193.07573026 -188.77490234 196.76708984 C-195.87521521 201.78471255 -202.82499412 206.96126218 -209.71240234 212.26708984 C-233.32050876 230.38558751 -233.32050876 230.38558751 -246.83740234 228.95458984 C-258.76607025 225.08191467 -267.15674406 209.01487526 -273.83740234 198.95458984 C-274.22138184 198.37708984 -274.60536133 197.79958984 -275.00097656 197.20458984 C-278.74861605 191.17903876 -278.67328872 185.83323818 -277.83740234 178.95458984 C-275.19114617 169.85808424 -265.18297553 164.4006606 -257.88671875 159.27954102 C-252.26067795 155.31257375 -246.79815187 151.14514806 -241.33740234 146.95458984 C-235.04158204 142.12755282 -228.71635407 137.38048815 -222.22412109 132.82177734 C-216.82425492 129.00266825 -211.58585178 124.97815363 -206.33740234 120.95458984 C-200.04131705 116.12788797 -193.71636689 111.38049715 -187.22412109 106.82177734 C-181.82425492 103.00266825 -176.58585178 98.97815363 -171.33740234 94.95458984 C-165.04131705 90.12788797 -158.71636689 85.38049715 -152.22412109 80.82177734 C-146.82425492 77.00266825 -141.58585178 72.97815363 -136.33740234 68.95458984 C-130.04131705 64.12788797 -123.71636689 59.38049715 -117.22412109 54.82177734 C-111.82425492 51.00266825 -106.58585178 46.97815363 -101.33740234 42.95458984 C-95.04131705 38.12788797 -88.71636689 33.38049715 -82.22412109 28.82177734 C-76.82422834 25.00264945 -71.58632648 20.97757267 -66.33740234 16.95458984 C-23.28967022 -15.97625231 -23.28967022 -15.97625231 0 0 Z " fill="#000000" transform="translate(277.83740234375,26.04541015625)"/>
<path d="M0 0 C1.28962558 -0.00382555 2.57925116 -0.00765109 3.9079563 -0.01159257 C7.46738307 -0.02183555 11.02670869 -0.01970024 14.58614361 -0.01541197 C18.43288759 -0.01293798 22.27960764 -0.02196729 26.12634277 -0.02944946 C33.65499451 -0.0421801 41.18361056 -0.04399217 48.71227125 -0.0416492 C54.83419284 -0.03986394 60.95610362 -0.04162014 67.07802391 -0.04587364 C67.95035398 -0.04646883 68.82268405 -0.04706402 69.72144836 -0.04767724 C71.49377778 -0.04888904 73.2661072 -0.05010317 75.03843661 -0.05131962 C91.64902971 -0.062189 108.25960249 -0.0600356 124.87019672 -0.05393478 C140.05141404 -0.04876696 155.23256716 -0.06001855 170.41377179 -0.07903299 C186.01733196 -0.09842598 201.62086178 -0.10666478 217.22443408 -0.10290974 C225.97840817 -0.10099981 234.73232765 -0.10346491 243.48629189 -0.11762428 C250.93926795 -0.12955772 258.39215578 -0.13092106 265.8451331 -0.11883412 C269.64411451 -0.11295899 273.44293469 -0.1118079 277.24190521 -0.12383652 C281.36899787 -0.13675165 285.49570934 -0.1261984 289.62280273 -0.11352539 C290.81124922 -0.12089968 291.99969571 -0.12827396 293.22415572 -0.13587171 C306.8447986 -0.04816001 318.22145539 2.97717583 328.32609558 12.43647766 C335.62480935 20.24785525 340.2201097 29.07154961 340.29240417 39.91767883 C340.30516388 41.22311142 340.31792358 42.52854401 340.33106995 43.87353516 C340.33412882 45.28774364 340.33635593 46.70195412 340.33781433 48.11616516 C340.34425114 49.58339566 340.35098015 51.0506249 340.35798645 52.51785278 C340.36993643 55.59012319 340.37366985 58.66228137 340.3724823 61.73457336 C340.37227972 65.64367671 340.39952752 69.55204804 340.43402672 73.46097851 C340.45642963 76.49217942 340.46031572 79.52320824 340.45926285 82.55448341 C340.46160081 83.99399133 340.47032089 85.43350532 340.48592758 86.87293053 C340.5979813 98.2793271 339.13530456 107.93309985 332.00187683 117.19819641 C331.34187683 118.07346985 330.68187683 118.94874329 330.00187683 119.85054016 C328.11128111 122.12885571 326.13421579 124.2092721 324.00187683 126.26069641 C325.03312683 127.04444641 326.06437683 127.82819641 327.12687683 128.63569641 C334.62073128 135.0828384 339.41743488 144.74772168 340.29905701 154.57244873 C340.43067043 158.50764761 340.47297827 162.43714702 340.47062683 166.37397766 C340.47774553 167.83452642 340.48544696 169.29507244 340.49369812 170.75561523 C340.50708228 173.80580938 340.5087397 176.85574496 340.50285339 179.90596008 C340.49696837 183.78256787 340.52752581 187.65791847 340.56797028 191.53428364 C340.59403483 194.54839565 340.59670783 197.5622126 340.59307861 200.57642174 C340.59475297 202.00394532 340.60423001 203.43148509 340.6222229 204.85889626 C340.77444866 218.42795357 337.48678145 229.31684479 328.00187683 239.26069641 C317.91257799 248.89139076 306.21592978 251.41309783 292.66349792 251.40596008 C291.74245773 251.4093187 290.82141754 251.41267731 289.87246704 251.4161377 C286.84006895 251.42560639 283.80772627 251.42758839 280.77531433 251.42866516 C278.66354856 251.43187927 276.55178301 251.43524346 274.4400177 251.43875122 C270.02020247 251.44473133 265.60040676 251.44659214 261.18058777 251.44599915 C255.51331212 251.44589729 249.84616108 251.45957889 244.17891502 251.47677135 C239.82095258 251.48787727 235.46302047 251.48991883 231.10504532 251.48938942 C229.01503187 251.49057053 226.92501767 251.49499963 224.83501816 251.50272179 C221.91707791 251.51249832 218.99941115 251.50965345 216.08146667 251.50361633 C214.78469749 251.51204559 214.78469749 251.51204559 213.46173096 251.52064514 C212.66555862 251.51645065 211.86938629 251.51225616 211.04908752 251.50793457 C210.01546365 251.50875172 210.01546365 251.50875172 208.96095848 251.50958538 C205.8255386 251.11125006 203.63275614 250.07182695 201.68937683 247.57319641 C200.68328735 244.18907723 201.19745284 241.66402867 202.00187683 238.26069641 C203.30611229 236.56951141 203.30611229 236.56951141 205.00187683 235.26069641 C208.07197571 234.966087 210.94092632 234.8542951 214.01213074 234.87593079 C215.39561707 234.86787163 215.39561707 234.86787163 216.80705261 234.85964966 C218.81227649 234.84985838 220.81754281 234.84693157 222.82278824 234.8500061 C226.00137295 234.85447868 229.17939922 234.84049701 232.35792542 234.8216095 C239.11423329 234.78477486 245.87048335 234.77112073 252.62687683 234.76069641 C260.43648995 234.74860594 268.24583258 234.72693658 276.05532455 234.68069458 C279.17780548 234.66716579 282.29994104 234.67128923 285.42243958 234.67610168 C287.35338268 234.66675402 289.28432203 234.65658344 291.21525574 234.64546204 C292.07585602 234.65161026 292.9364563 234.65775848 293.82313538 234.66409302 C303.17220838 234.57008986 311.28294725 231.89775646 318.00187683 225.26069641 C323.41299962 217.63558241 323.73825347 210.16995495 323.66593933 201.07319641 C323.66931778 199.72138536 323.6741789 198.36957729 323.68043518 197.01777649 C323.68775853 194.2003403 323.677251 191.3837029 323.6537323 188.56636047 C323.62524477 184.982019 323.64167371 181.39955011 323.67159462 177.8152771 C323.6897928 175.0285011 323.68385324 172.24215816 323.67095566 169.45536804 C323.66606942 167.5002468 323.68106782 165.54510768 323.6966095 163.59004211 C323.59544773 155.83478094 322.60987093 149.66482163 318.00187683 143.26069641 C310.83336015 136.46073962 303.2839645 134.13950122 293.47857952 134.13206196 C292.39929768 134.12883751 291.32001584 134.12561307 290.2080285 134.12229091 C289.03323255 134.12383951 287.8584366 134.12538811 286.64804077 134.12698364 C285.39153019 134.12471809 284.1350196 134.12245253 282.84043294 134.12011832 C279.35967322 134.11400956 275.87893755 134.11413283 272.39817369 134.1153127 C268.64142193 134.11551694 264.88467786 134.10999572 261.12792969 134.10525513 C253.77033069 134.09695309 246.4127397 134.09420049 239.0551364 134.09364275 C233.0737571 134.09316738 227.09238044 134.09111158 221.11100197 134.08794212 C204.14808174 134.07913678 187.18516783 134.07452256 170.2222453 134.0752726 C168.85088874 134.07533253 168.85088874 134.07533253 167.451828 134.07539368 C166.53647246 134.07543456 165.62111691 134.07547544 164.67802332 134.07551756 C149.84379573 134.075924 135.00959352 134.06635464 120.17537328 134.05225531 C104.93918086 134.03788833 89.70300083 134.0309853 74.46680146 134.03184909 C65.91465674 134.03218094 57.36253863 134.02943878 48.81040001 134.01867104 C41.52892631 134.00956181 34.24749128 134.00739426 26.96601435 134.01418046 C23.25251697 134.01744352 19.53909379 134.01751007 15.82560349 134.00882721 C11.79590089 133.99950206 7.76636979 134.00574381 3.73666382 134.01345825 C1.98450814 134.00574291 1.98450814 134.00574291 0.19695538 133.9978717 C-10.2805546 134.04219485 -18.92463575 135.1103403 -26.99812317 142.26069641 C-31.24560429 147.61050001 -33.10824867 152.28421362 -33.19099426 159.13398743 C-33.20705719 160.34277054 -33.22312012 161.55155365 -33.2396698 162.79696655 C-33.28422568 168.340294 -33.32564383 173.88349195 -33.34822083 179.42695618 C-33.36151416 182.34557254 -33.38928118 185.26348209 -33.43025208 188.18183899 C-33.47990187 191.71914544 -33.50438153 195.2558152 -33.51144791 198.79345512 C-33.52132505 200.77971942 -33.5554945 202.76581588 -33.59025574 204.75180054 C-33.57203811 212.61946388 -32.65182224 218.7533302 -27.99812317 225.26069641 C-17.97795203 235.15097088 -5.84745969 234.69013497 7.30973816 234.6295929 C9.16662314 234.63206338 11.02350673 234.6359043 12.88038635 234.64100647 C16.86471023 234.64931814 20.84889105 234.64855957 24.83321571 234.64082146 C31.13182788 234.62921077 37.43025699 234.64142249 43.72885132 234.65744019 C59.3654217 234.69357941 75.00198721 234.69985963 90.63859558 234.69734192 C102.80723688 234.69563211 114.97572818 234.7026951 127.14432734 234.73732048 C133.40798314 234.75413755 139.67127311 234.75230116 145.93492758 234.73649776 C149.82475834 234.73071404 153.71441429 234.74141613 157.60421371 234.75674438 C159.41021705 234.7604801 161.21624943 234.75733529 163.02222633 234.74687386 C165.48401207 234.73356088 167.9445166 234.74466159 170.40625 234.76190186 C171.12384878 234.75209508 171.84144757 234.7422883 172.58079177 234.73218435 C175.92925266 234.78081936 177.72722043 235.05729791 180.44925976 237.07312107 C182.70472054 240.25097508 182.47726139 242.45761994 182.00187683 246.26069641 C180.24172552 249.44573211 179.50296767 250.09366613 176.00187683 251.26069641 C173.52019137 251.36038875 171.06650296 251.40414776 168.58465576 251.40113831 C167.82285143 251.40410943 167.0610471 251.40708055 166.2761578 251.41014171 C163.71540011 251.41883486 161.15468914 251.42033751 158.59391785 251.42182922 C156.76075134 251.42645719 154.9275858 251.43148182 153.09442139 251.43687439 C148.10634945 251.45000779 143.11829097 251.45644589 138.13020444 251.46088505 C135.01156448 251.46381598 131.8929282 251.46792096 128.77429008 251.47238922 C119.01072251 251.48607041 109.24716334 251.49573242 99.48358685 251.49959111 C88.22565305 251.50406499 76.96784108 251.52157912 65.70994431 251.55059171 C57.00233481 251.57224968 48.29475947 251.58229769 39.58712333 251.58363223 C34.38995967 251.58467787 29.19291044 251.59053364 23.99577522 251.60845184 C19.09970975 251.62500234 14.20384382 251.6270543 9.30776024 251.61831284 C7.51801644 251.61754602 5.72826162 251.62183786 3.93854523 251.63177109 C-12.78831555 251.71910447 -26.8889817 249.80388295 -39.59187317 238.04194641 C-45.83981156 230.82030333 -50.09342237 221.49218644 -50.17512512 211.94429016 C-50.18796036 210.63863098 -50.20079559 209.3329718 -50.21401978 207.98774719 C-50.22219182 206.55790082 -50.22963466 205.12805011 -50.23640442 203.69819641 C-50.24047995 202.97549561 -50.24455547 202.2527948 -50.2487545 201.50819397 C-50.269613 197.67651151 -50.28391076 193.84486475 -50.29328918 190.01313782 C-50.30430115 186.08045028 -50.33864007 182.14833679 -50.37846088 178.21585083 C-50.40478988 175.17179923 -50.41299573 172.12788039 -50.41657066 169.08372498 C-50.42140159 167.6358303 -50.43291419 166.18794013 -50.45160866 164.74015808 C-50.60690972 151.90626838 -48.27295502 141.38114026 -39.99812317 131.26069641 C-38.07740179 129.39672362 -36.15825746 127.85508125 -33.99812317 126.26069641 C-34.67874817 125.64194641 -35.35937317 125.02319641 -36.06062317 124.38569641 C-38.45890883 121.96015751 -40.53384159 119.37884045 -42.56062317 116.63569641 C-43.11878723 115.88030579 -43.67695129 115.12491516 -44.25202942 114.34663391 C-49.68523777 104.74431937 -50.61289554 95.84822717 -50.56452942 84.95210266 C-50.56978046 83.49441129 -50.57606228 82.03672332 -50.58331299 80.57904053 C-50.59365348 77.54071433 -50.58924862 74.50285832 -50.57453918 71.46455383 C-50.55736107 67.60364556 -50.58086605 63.74422713 -50.61602879 59.88348484 C-50.63816864 56.87792419 -50.63652177 53.872711 -50.62826347 50.86709404 C-50.62745297 49.44516808 -50.63414073 48.02321423 -50.6490345 46.60136604 C-50.7725022 32.68556967 -47.13030101 21.69332418 -37.41218567 11.61616516 C-26.60632513 1.59664659 -14.15932436 -0.04477528 0 0 Z M-28.99812317 26.26069641 C-34.33066424 34.03377627 -34.72247006 41.30814233 -34.62702942 50.51850891 C-34.62786036 51.87510874 -34.63032818 53.23170845 -34.63433838 54.58830261 C-34.63717804 57.41414647 -34.62267446 60.23918965 -34.595047 63.06489563 C-34.56089976 66.66717464 -34.56702075 70.26803046 -34.58570957 73.87037849 C-34.59632938 76.66563058 -34.58729822 79.46055735 -34.57232475 82.25577927 C-34.56470508 84.22315414 -34.57195682 86.19056878 -34.57955933 88.15794373 C-34.45640562 97.55529579 -32.7490293 104.32226511 -25.99812317 111.26069641 C-20.63031405 115.1041784 -16.36029225 117.38250802 -9.65376759 117.39491749 C-7.98017838 117.40160425 -7.98017838 117.40160425 -6.27277929 117.40842611 C-5.04187131 117.40824174 -3.81096334 117.40805738 -2.54275513 117.40786743 C-1.23909962 117.41154412 0.06455588 117.41522081 1.4077161 117.41900891 C5.03399829 117.42903357 8.66026394 117.43274645 12.28655803 117.43539822 C16.19467745 117.4392999 20.10278373 117.44887833 24.01089478 117.45761108 C33.45284639 117.4773794 42.89479908 117.48744219 52.33676621 117.49633887 C56.78225904 117.50072119 61.22775068 117.50608815 65.67324257 117.51132774 C80.44956941 117.52834042 95.22589551 117.54283483 110.00223064 117.55007648 C113.83731779 117.5519864 117.67240494 117.55390673 121.50749207 117.55586243 C122.4606938 117.55634617 123.41389554 117.55682991 124.39598218 117.55732831 C139.83895572 117.56562949 155.28185183 117.59096773 170.72479155 117.6234431 C186.57674067 117.65650704 202.42865043 117.67452464 218.28063422 117.67772073 C227.1821506 117.67988644 236.08355406 117.68864412 244.98503685 117.7141819 C252.5656417 117.73587982 260.14610621 117.74394381 267.72673859 117.73421512 C271.59409414 117.72966775 275.46116006 117.73158176 279.32847595 117.75097656 C283.52305165 117.77183078 287.71698394 117.7616316 291.91159058 117.7484436 C293.13134494 117.75941285 294.3510993 117.7703821 295.60781592 117.78168374 C304.69360956 117.71261336 311.30623427 115.77537566 318.00187683 109.26069641 C322.00138485 103.67498125 324.11064211 99.34977989 324.19474792 92.3874054 C324.21081085 91.17862228 324.22687378 89.96983917 324.24342346 88.72442627 C324.28797934 83.18109882 324.32939749 77.63790087 324.35197449 72.09443665 C324.36526782 69.17582028 324.39303484 66.25791074 324.43400574 63.33955383 C324.48365553 59.80224738 324.50813519 56.26557762 324.51520157 52.7279377 C324.52507871 50.7416734 324.55924816 48.75557695 324.5940094 46.76959229 C324.57331548 37.83248618 323.18147621 30.89326787 317.07032776 24.11981201 C309.1156829 16.26068377 299.76779611 15.81891036 289.06622314 15.87301636 C287.78335354 15.86763082 286.50048393 15.86224528 285.17873949 15.85669655 C281.63821184 15.84229843 278.09791808 15.84646885 274.55737793 15.85386336 C270.73111127 15.85860673 266.90489435 15.8460749 263.0786438 15.83584595 C255.59075476 15.81867577 248.1029497 15.81781419 240.61504609 15.82305885 C234.52742765 15.82710492 228.43983398 15.82565181 222.35221672 15.82031059 C221.05118153 15.81918796 221.05118153 15.81918796 219.72386281 15.81804265 C217.96167592 15.81651113 216.19948904 15.81497278 214.43730216 15.81342768 C197.92309228 15.79970921 181.40892982 15.80513585 164.89472102 15.81661289 C149.7961959 15.82654572 134.69779332 15.81360259 119.5992871 15.7896787 C104.08387088 15.76528002 88.56851171 15.75568165 73.05307668 15.76233143 C64.34721814 15.76582179 55.64145383 15.76360359 46.93560982 15.7460804 C39.52500443 15.73134886 32.11455966 15.73073545 24.70395739 15.74815131 C20.92543319 15.75665568 17.14719581 15.75882488 13.36868668 15.74349976 C9.26706405 15.72707047 5.16613154 15.74181777 1.06451416 15.75949097 C-0.12197611 15.74988596 -1.30846639 15.74028095 -2.53091091 15.73038489 C-12.71013026 15.82053707 -22.17907763 18.22405941 -28.99812317 26.26069641 Z " fill="#000000" transform="translate(110.99812316894531,241.7393035888672)"/>
<path d="M0 0 C1.13812134 -0.00997513 2.27624268 -0.01995026 3.44885254 -0.03022766 C4.68327087 -0.03089233 5.91768921 -0.03155701 7.18951416 -0.03224182 C8.50081299 -0.04056534 9.81211182 -0.04888885 11.16314697 -0.0574646 C14.75013424 -0.07934665 18.33703629 -0.08820015 21.92408276 -0.09329104 C24.16916846 -0.09694253 26.41423212 -0.10318672 28.65930939 -0.11029243 C36.50337192 -0.1347665 44.34736853 -0.14783409 52.19146729 -0.15138245 C59.48403896 -0.15501463 66.77618899 -0.18489218 74.06863189 -0.22678703 C80.34488023 -0.2615698 86.62098939 -0.27693227 92.89733338 -0.27762848 C96.63910685 -0.27841868 100.38045052 -0.28703756 104.12212372 -0.31562614 C108.3011359 -0.34684385 112.47915392 -0.33770921 116.65826416 -0.32521057 C117.88458557 -0.34004486 119.11090698 -0.35487915 120.37438965 -0.37016296 C128.6037663 -0.30025811 135.44492518 1.13535053 141.79366684 6.68148136 C147.48204801 12.9751968 148.76034172 19.11480024 148.53424072 27.33665466 C147.7110748 34.2146633 144.33533551 38.76557954 139.18267822 43.27415466 C138.56392822 43.83102966 137.94517822 44.38790466 137.30767822 44.96165466 C130.57974811 49.11714091 123.05088388 48.56464616 115.41363525 48.54881287 C114.13959839 48.5539238 112.86556152 48.55903473 111.55291748 48.56430054 C108.07347037 48.57763821 104.59413223 48.57827502 101.11466455 48.57573724 C98.20234814 48.57466386 95.29005344 48.5795603 92.37774169 48.58434266 C85.50264526 48.59541998 78.62760347 48.59588542 71.75250244 48.58982849 C64.67755409 48.583791 57.60280473 48.596098 50.52789032 48.61739856 C44.43762486 48.63505537 38.3474225 48.64100947 32.25713241 48.63776082 C28.62675109 48.63595414 24.99651169 48.63852214 21.36615372 48.65247536 C17.31414264 48.66746778 13.26253255 48.65804806 9.21051025 48.64646912 C8.01956757 48.65411285 6.82862488 48.66175659 5.60159302 48.66963196 C-2.72887954 48.61712835 -11.08430322 47.8884542 -17.46575928 41.89915466 C-22.67794885 35.63247587 -24.63257908 29.26680064 -24.22747803 21.16477966 C-23.12918702 13.42444305 -19.88509592 8.71275479 -14.01263428 3.68431091 C-9.58697325 0.84149307 -5.19415215 0.02453844 0 0 Z M-6.05853271 18.6231842 C-8.21678401 21.87625222 -8.55038472 23.4459371 -7.81732178 27.27415466 C-5.95022267 29.57691022 -4.46084437 30.95239337 -1.81732178 32.27415466 C-0.12854269 32.37139747 1.56407199 32.40484162 3.25564575 32.40786743 C4.86661636 32.41426491 4.86661636 32.41426491 6.51013184 32.42079163 C7.69355164 32.42033844 8.87697144 32.41988525 10.09625244 32.41941833 C11.95973831 32.42445625 11.95973831 32.42445625 13.86087036 32.42959595 C17.27415342 32.4374844 20.68737566 32.44077448 24.10066366 32.44141173 C26.94857586 32.4423603 29.79648219 32.44603805 32.64439213 32.44958383 C39.36337462 32.4577323 46.08234371 32.46016773 52.80133057 32.4594574 C59.73478767 32.45885671 66.66816694 32.46940586 73.60160434 32.48520106 C79.55155551 32.4982733 85.50148123 32.50364142 91.45144665 32.50300199 C95.00626237 32.50274688 98.56100896 32.50560514 102.11581039 32.51618004 C106.08067622 32.52765223 110.04543521 32.52311612 114.01031494 32.51707458 C115.18968628 32.52269409 116.36905762 32.5283136 117.58416748 32.53410339 C118.66378754 32.52990891 119.74340759 32.52571442 120.85574341 32.52139282 C122.26219022 32.52220997 122.26219022 32.52220997 123.69705009 32.52304363 C126.37053049 32.25534479 127.94121981 31.74011359 130.18267822 30.27415466 C132.52817496 26.75590955 132.76259225 25.41639772 132.18267822 21.27415466 C130.52336233 18.75825627 129.73594873 17.71122333 127.18267822 16.27415466 C123.04875661 15.51480718 118.95395573 15.59151146 114.76080322 15.62718201 C113.50014038 15.61842041 112.23947754 15.60965881 110.94061279 15.60063171 C107.49002457 15.57787322 104.04018535 15.58665955 100.58958435 15.60252714 C96.97508761 15.61520444 93.3606541 15.60344097 89.74615479 15.59559631 C83.67670197 15.586505 77.60755355 15.59847375 71.53814697 15.62229919 C64.52547435 15.64950989 57.51352858 15.64069533 50.50087357 15.61316717 C44.47520358 15.59046202 38.44975215 15.58728275 32.42405319 15.60036051 C28.82723835 15.60814747 25.23076494 15.60921793 21.63397217 15.59267807 C17.62372946 15.57552441 13.61473562 15.59931127 9.60455322 15.62718201 C7.81990662 15.61200027 7.81990662 15.61200027 5.99920654 15.59651184 C-0.57485288 15.49558217 -0.57485288 15.49558217 -6.05853271 18.6231842 Z " fill="#000000" transform="translate(128.81732177734375,284.72584533691406)"/>
<path d="M0 0 C1.12273819 -0.00852997 2.24547638 -0.01705994 3.40223694 -0.02584839 C4.61952484 -0.02494202 5.83681274 -0.02403564 7.09098816 -0.02310181 C9.03108513 -0.03317764 9.03108513 -0.03317764 11.01037598 -0.04345703 C14.54772131 -0.06107447 18.08496978 -0.06581062 21.62235475 -0.0670886 C23.83594082 -0.06851327 26.04950251 -0.07278885 28.2630825 -0.07808304 C35.9957726 -0.09656981 43.72839388 -0.10475542 51.46110535 -0.10317993 C58.65252829 -0.10197916 65.84365081 -0.1230722 73.03499776 -0.15466726 C79.22290823 -0.18087833 85.41072088 -0.1915452 91.5986864 -0.19026911 C95.28837992 -0.18976086 98.97780634 -0.19536767 102.66744423 -0.21662521 C106.78669669 -0.23971137 110.9052823 -0.23045731 115.02458191 -0.21841431 C116.23579712 -0.22965332 117.44701233 -0.24089233 118.69493103 -0.25247192 C127.1463587 -0.18979602 132.80431125 1.6393186 140.00187683 5.89242554 C144.99626547 11.16428021 147.54912917 17.0007916 147.87687683 24.26742554 C147.53287005 31.31051164 145.41254883 37.13920397 140.34953308 42.15023804 C134.87664688 46.49913417 129.51246229 48.50807076 122.47251892 48.5415802 C120.77795815 48.55654289 120.77795815 48.55654289 119.04916382 48.57180786 C117.82409622 48.57247253 116.59902863 48.57313721 115.33683777 48.57382202 C113.38451988 48.5863073 113.38451988 48.5863073 111.39276123 48.5990448 C107.83263254 48.62092573 104.27258971 48.62978019 100.71240139 48.63487124 C98.48406658 48.63852287 96.25575398 48.64476713 94.02742767 48.65187263 C86.24171976 48.67634633 78.45607826 48.68941421 70.67033386 48.69296265 C63.43229238 48.69659478 56.19467573 48.72647205 48.95676398 48.76836723 C42.72722428 48.80315137 36.4978248 48.8185125 30.26818871 48.81920868 C26.55435959 48.81999884 22.84096351 48.8286156 19.12723541 48.85720634 C14.97935405 48.88842705 10.8324742 48.87928877 6.68449402 48.86679077 C5.46752335 48.88162506 4.25055267 48.89645935 2.9967041 48.91174316 C-5.41737213 48.83974229 -12.32935116 47.30882757 -18.6853981 41.49559689 C-24.28005742 35.53238305 -25.28809555 29.3758221 -25.11921692 21.36898804 C-24.28720562 14.41512517 -21.27938718 9.11304608 -15.81062317 4.76742554 C-10.93985042 1.32687969 -5.92159935 0.02044134 0 0 Z M-7.74812317 19.26742554 C-9.19243172 22.15604263 -9.12500823 24.06390255 -8.74812317 27.26742554 C-7.08938152 29.79178532 -6.30848485 30.83108963 -3.74812317 32.26742554 C0.38592601 33.02632282 4.4805393 32.95006925 8.67375183 32.91439819 C10.56474609 32.92754059 10.56474609 32.92754059 12.49394226 32.94094849 C15.94453048 32.96370698 19.3943697 32.95492065 22.8449707 32.93905306 C26.45946744 32.92637576 30.07390095 32.93813923 33.68840027 32.94598389 C39.75785309 32.9550752 45.8270015 32.94310645 51.89640808 32.91928101 C58.90908071 32.89207031 65.92102647 32.90088487 72.93368149 32.92841303 C78.95935148 32.95111818 84.98480291 32.95429745 91.01050186 32.94121969 C94.6073167 32.93343273 98.20379011 32.93236227 101.80058289 32.94890213 C105.8108256 32.96605579 109.81981944 32.94226893 113.83000183 32.91439819 C115.01976624 32.92451935 116.20953064 32.9346405 117.43534851 32.94506836 C124.00940794 33.04599803 124.00940794 33.04599803 129.49308777 29.918396 C131.65133907 26.66532798 131.98493977 25.0956431 131.25187683 21.26742554 C129.38477773 18.96466998 127.89539942 17.58918683 125.25187683 16.26742554 C123.56540535 16.16808263 121.87502477 16.13235503 120.18563843 16.12698364 C119.11310318 16.1212735 118.04056793 16.11556335 116.93553162 16.10968018 C115.75368286 16.10856232 114.57183411 16.10744446 113.35417175 16.10629272 C112.11345413 16.10132782 110.87273651 16.09636292 109.59442139 16.09124756 C106.18520618 16.07912504 102.77605243 16.07167701 99.36682296 16.0672369 C97.23705196 16.06430701 95.10728636 16.06020234 92.97751808 16.05573273 C86.31452782 16.04205502 79.65154988 16.03239005 72.98854655 16.02853084 C65.29622029 16.02405107 57.60407181 16.00650826 49.91179961 15.97753024 C43.96692833 15.95591227 38.02210706 15.94582648 32.0771969 15.94448972 C28.52622003 15.94344164 24.97541021 15.9375337 21.42447472 15.9196701 C17.46218001 15.90012544 13.50010729 15.90447889 9.5377655 15.91098022 C8.36198944 15.90176544 7.18621338 15.89255066 5.97480774 15.88305664 C4.89381302 15.88862579 3.8128183 15.89419495 2.69906616 15.89993286 C1.76235675 15.8984663 0.82564734 15.89699974 -0.13944721 15.89548874 C-3.29024705 16.34471985 -5.18058055 17.41630452 -7.74812317 19.26742554 Z " fill="#000000" transform="translate(129.7481231689453,401.7325744628906)"/>
<path d="M0 0 C5.53182692 3.6239111 8.72035846 7.79339671 11 14 C11.54820904 17.53023909 11.56198622 20.994958 11.53125 24.5625 C11.5350769 25.5532251 11.53890381 26.5439502 11.54284668 27.56469727 C11.54555562 29.64893618 11.5382662 31.7332097 11.52148438 33.81738281 C11.50006067 36.99101212 11.52132141 40.16237784 11.546875 43.3359375 C11.54423154 45.36979662 11.5391062 47.40365434 11.53125 49.4375 C11.53934692 50.37730713 11.54744385 51.31711426 11.55578613 52.28540039 C11.45714255 59.28373705 9.87692544 64.58658497 5.32421875 69.98828125 C-1.07779355 75.1679523 -6.81752048 77.67360512 -15.15625 77.41015625 C-22.57063162 76.34077429 -28.18723811 72.58317163 -32.84375 66.84375 C-36.34734653 61.25693392 -36.32097579 56.15232572 -36.3359375 49.73046875 C-36.3425943 48.73549881 -36.3492511 47.74052887 -36.35610962 46.71540833 C-36.36621898 44.61326949 -36.37092717 42.51109867 -36.37060547 40.40893555 C-36.37497077 37.20892828 -36.41128761 34.01030962 -36.44921875 30.81054688 C-36.45508899 28.76302552 -36.459057 26.71549765 -36.4609375 24.66796875 C-36.48249405 23.24414131 -36.48249405 23.24414131 -36.50448608 21.79154968 C-36.45644769 14.73238304 -34.88600625 9.49756471 -30.359375 4.01171875 C-21.30825749 -3.43568134 -10.6737472 -5.77253675 0 0 Z M-19 16 C-21.47437208 20.94874416 -20.31287565 28.60623594 -20.35009766 34.11157227 C-20.36665091 35.90695158 -20.3939329 37.70226516 -20.43212891 39.49731445 C-20.48696923 42.08840041 -20.50878148 44.67794268 -20.5234375 47.26953125 C-20.54610687 48.06865433 -20.56877625 48.8677774 -20.59213257 49.69111633 C-20.57612118 53.92680841 -20.34145113 55.54963586 -17.69384766 59.04174805 C-15.0662217 61.34572986 -15.0662217 61.34572986 -11.375 61.0625 C-7.55065107 59.8585383 -6.84221254 59.46125106 -5 56 C-4.70700343 53.07224563 -4.57929657 50.36345794 -4.6015625 47.4375 C-4.59869232 46.60919678 -4.59582214 45.78089355 -4.59286499 44.92749023 C-4.59082682 43.17919225 -4.59633944 41.43087133 -4.60888672 39.68261719 C-4.62494446 37.00924607 -4.60903029 34.3373867 -4.58984375 31.6640625 C-4.59182623 29.96353834 -4.59566999 28.26301511 -4.6015625 26.5625 C-4.59548981 25.76448975 -4.58941711 24.96647949 -4.5831604 24.14428711 C-4.62466554 20.86312655 -4.76345214 18.43548848 -6.34521484 15.5234375 C-10.59321764 11.61261758 -14.7877216 12.75052809 -19 16 Z " fill="#000000" transform="translate(343,389)"/>
<path d="M0 0 C6.16848123 3.70369698 10.59955678 9.26949214 12.40307617 16.26318359 C12.9891751 20.01537539 13.04963285 23.73473698 13.0859375 27.5234375 C13.09400925 28.33372406 13.10208099 29.14401062 13.11039734 29.97885132 C13.12419279 31.69177135 13.13493513 33.40471835 13.14282227 35.11767578 C13.15430765 36.85148299 13.17470466 38.58525579 13.2043457 40.31884766 C13.58342663 62.52578927 13.58342663 62.52578927 6.99707031 70.29125977 C1.66832308 75.56547303 -4.31096876 77.69779911 -11.65234375 78.484375 C-18.74030273 77.72495082 -25.40111251 75.71712957 -30.15234375 70.109375 C-36.84422368 61.64199902 -35.87901944 51.2641014 -35.74926758 41.05053711 C-35.7148832 38.05031687 -35.72866158 35.05303754 -35.74804688 32.05273438 C-35.74114872 30.12238346 -35.73147662 28.19204004 -35.71875 26.26171875 C-35.72370987 25.37709457 -35.72866974 24.4924704 -35.73377991 23.58103943 C-35.60616468 16.74788311 -34.1709876 10.44831584 -29.47584534 5.25498962 C-21.3174546 -2.32799095 -10.33302742 -4.49815567 0 0 Z M-16.83569336 16.07592773 C-19.91110872 20.10291012 -19.86370497 22.83867383 -19.78125 27.76953125 C-19.78366196 28.59641953 -19.78607391 29.4233078 -19.78855896 30.2752533 C-19.7875823 32.0176169 -19.77423186 33.76001223 -19.74926758 35.50219727 C-19.71490338 38.16725026 -19.72862914 40.82899541 -19.74804688 43.49414062 C-19.74114944 45.19011826 -19.73147798 46.88608735 -19.71875 48.58203125 C-19.72370987 49.37690445 -19.72866974 50.17177765 -19.73377991 50.99073792 C-19.6573634 54.582508 -19.4757134 56.68446234 -17.26928711 59.58374023 C-14.74807815 61.40072037 -13.2677198 62.03339022 -10.15234375 62.109375 C-7.46050374 60.91995732 -5.71613977 59.92297113 -4.02880859 57.48803711 C-2.78177505 54.10367839 -2.82727528 50.79961137 -2.81640625 47.23828125 C-2.80974945 46.47893784 -2.80309265 45.71959442 -2.79623413 44.9372406 C-2.78612888 43.33440567 -2.78141645 41.73152886 -2.78173828 40.12866211 C-2.77736432 37.68337399 -2.74102387 35.23989096 -2.703125 32.79492188 C-2.69725639 31.23438115 -2.69328729 29.67383188 -2.69140625 28.11328125 C-2.67703522 27.38605362 -2.66266418 26.65882599 -2.64785767 25.90956116 C-2.67996752 22.32227055 -3.06262553 20.25428865 -4.96630859 17.17944336 C-7.11316902 14.85095723 -7.11316902 14.85095723 -10.58984375 13.984375 C-14.2272689 13.77762351 -14.2272689 13.77762351 -16.83569336 16.07592773 Z " fill="#000000" transform="translate(399.15234375,270.890625)"/>
<path d="M0 0 C4.61838067 4.22983622 8.60268467 8.70588357 9.20072937 15.16944885 C9.29801217 17.87119956 9.32963883 20.56601957 9.3359375 23.26953125 C9.3425943 24.26450119 9.3492511 25.25947113 9.35610962 26.28459167 C9.36621898 28.38673051 9.37092717 30.48890133 9.37060547 32.59106445 C9.37497077 35.79107172 9.41128761 38.98969038 9.44921875 42.18945312 C9.45508899 44.23697448 9.459057 46.28450235 9.4609375 48.33203125 C9.47530853 49.28124954 9.48967957 50.23046783 9.50448608 51.20845032 C9.45639393 58.27551828 7.85965509 63.45848068 3.39453125 68.98828125 C-2.04769255 73.54362413 -7.45378585 75.62004848 -14.5 76.375 C-22.17486484 75.55269305 -29.02468045 73.16164879 -34 67 C-37.94040044 60.88260175 -38.59303969 55.60940733 -38.53125 48.4375 C-38.5350769 47.4467749 -38.53890381 46.4560498 -38.54284668 45.43530273 C-38.54555562 43.35106382 -38.5382662 41.2667903 -38.52148438 39.18261719 C-38.50006067 36.00898788 -38.52132141 32.83762216 -38.546875 29.6640625 C-38.54423154 27.63020338 -38.5391062 25.59634566 -38.53125 23.5625 C-38.53934692 22.62269287 -38.54744385 21.68288574 -38.55578613 20.71459961 C-38.4546467 13.53919289 -36.78590505 8.23706376 -32.0703125 2.7578125 C-22.67415934 -5.12891846 -10.66416856 -7.20986161 0 0 Z M-22 16 C-22.73774565 18.92481626 -22.67747561 21.77773397 -22.62890625 24.78125 C-22.63131821 25.63174927 -22.63373016 26.48224854 -22.63621521 27.35852051 C-22.63523716 29.15393748 -22.62185331 30.94938475 -22.59692383 32.74462891 C-22.56261304 35.49095213 -22.57626517 38.23405743 -22.59570312 40.98046875 C-22.58880448 42.72657618 -22.57913193 44.47267531 -22.56640625 46.21875 C-22.57136612 47.03863403 -22.57632599 47.85851807 -22.58143616 48.70324707 C-22.50307696 52.50136329 -22.46013982 54.39149149 -20.11694336 57.49023438 C-17.59476267 59.28900791 -16.10615399 59.92424015 -13 60 C-9.28738773 58.24886475 -9.28738773 58.24886475 -7 55 C-6.71516538 49.47132405 -6.68626719 43.94156993 -6.64990234 38.40625 C-6.6333317 36.55553624 -6.60602692 34.70488677 -6.56787109 32.85449219 C-6.51314084 30.18651127 -6.49123666 27.52002892 -6.4765625 24.8515625 C-6.45389313 24.02540436 -6.43122375 23.19924622 -6.40786743 22.34805298 C-6.42122725 17.39774381 -6.42122725 17.39774381 -9.37646484 13.47802734 C-14.70867023 10.4740099 -17.8804975 11.64795515 -22 16 Z " fill="#000000" transform="translate(345,273)"/>
<path d="M0 0 C6.08208875 5.04562793 9.27863449 11.37177774 10.28300476 19.20805359 C10.39151973 21.43567238 10.41633923 23.64485408 10.3984375 25.875 C10.40130768 26.68437012 10.40417786 27.49374023 10.40713501 28.32763672 C10.40916064 30.0250723 10.40373689 31.72253203 10.39111328 33.41992188 C10.37503729 35.99402878 10.39101279 38.56656598 10.41015625 41.140625 C10.40817355 42.80208674 10.40432932 44.46354752 10.3984375 46.125 C10.40754654 47.25977783 10.40754654 47.25977783 10.4168396 48.41748047 C10.30656556 56.94252128 7.92162339 64.06227292 2.01171875 70.26953125 C-3.5054257 75.01534677 -9.3750953 76.66243738 -16.5859375 76.31640625 C-23.71211519 75.38239267 -29.22834511 72.37740935 -34 67 C-37.75686828 60.77923161 -38.6065203 55.00225207 -38.56640625 47.84765625 C-38.57260483 46.90748154 -38.57880341 45.96730682 -38.58518982 44.99864197 C-38.59225 43.0229495 -38.589181 41.04719705 -38.57641602 39.0715332 C-38.56254972 36.07325191 -38.59667916 33.07809686 -38.63476562 30.08007812 C-38.71353436 10.89869176 -38.71353436 10.89869176 -33 4 C-23.47951992 -5.1700041 -11.41395366 -6.59927288 0 0 Z M-21 15 C-23.47437208 19.94874416 -22.31287565 27.60623594 -22.35009766 33.11157227 C-22.36665091 34.90695158 -22.3939329 36.70226516 -22.43212891 38.49731445 C-22.48696923 41.08840041 -22.50878148 43.67794268 -22.5234375 46.26953125 C-22.54610687 47.06865433 -22.56877625 47.8677774 -22.59213257 48.69111633 C-22.57611747 52.92778877 -22.33997507 54.55100688 -19.69384766 58.0456543 C-17.06565721 60.35478164 -17.06565721 60.35478164 -13.375 60 C-9.51779538 58.86704337 -9.51779538 58.86704337 -7 56 C-5.81074008 52.43222023 -5.81903418 49.16054511 -5.796875 45.4453125 C-5.78832489 44.33746902 -5.78832489 44.33746902 -5.77960205 43.20724487 C-5.77016355 41.64550199 -5.76362263 40.0837393 -5.75976562 38.52197266 C-5.75006354 36.14059474 -5.71903222 33.76008156 -5.6875 31.37890625 C-5.68096906 29.85938011 -5.67571894 28.33984781 -5.671875 26.8203125 C-5.6595282 26.11182159 -5.6471814 25.40333069 -5.63446045 24.67337036 C-5.65419449 20.26347476 -6.27443144 17.49278338 -9 14 C-13.81845021 10.78769986 -16.55412446 11.87587124 -21 15 Z " fill="#000000" transform="translate(402,390)"/>
</svg>
