<?xml version="1.0" encoding="UTF-8"?>
<svg version="1.1" xmlns="http://www.w3.org/2000/svg" width="512" height="512">
<path d="M0 0 C1.56920055 -0.01169993 1.56920055 -0.01169993 3.17010212 -0.02363622 C6.6810594 -0.04360495 10.19093866 -0.02777158 13.7019043 -0.01205444 C16.21667108 -0.01882834 18.73143291 -0.02773018 21.2461853 -0.03860474 C27.37079359 -0.05905983 33.49500164 -0.05603497 39.61961532 -0.04154153 C44.59707259 -0.03025031 49.574444 -0.02871785 54.5519104 -0.03416061 C55.61446752 -0.03530986 55.61446752 -0.03530986 56.69849044 -0.03648233 C58.13752614 -0.03808095 59.57656181 -0.03970202 61.01559746 -0.04134528 C74.51000139 -0.0556036 88.00423549 -0.03920884 101.49861157 -0.01234345 C113.07785409 0.00999547 124.65684599 0.00611536 136.23608398 -0.01693726 C149.68212988 -0.04369388 163.12802693 -0.0542303 176.57409573 -0.03887594 C178.00784236 -0.03728319 179.44158901 -0.03571134 180.87533569 -0.03416061 C181.93348629 -0.03300355 181.93348629 -0.03300355 183.01301366 -0.03182311 C187.98459305 -0.02750567 192.95607805 -0.03479355 197.92764282 -0.04655838 C204.61887879 -0.06204459 211.30956792 -0.05102195 218.00078201 -0.0220871 C220.45944048 -0.01546434 222.91813871 -0.0173941 225.37678146 -0.02840042 C228.7274788 -0.04201945 232.0766468 -0.02498201 235.42724609 0 C236.89440803 -0.01673041 236.89440803 -0.01673041 238.3912096 -0.03379881 C239.28983062 -0.02076008 240.18845163 -0.00772134 241.11430359 0.00571251 C241.88736186 0.00652427 242.66042013 0.00733603 243.45690441 0.00817239 C247.04318526 1.00417008 248.49244923 2.68740034 250.71362305 5.63491821 C251.20486909 8.64008474 251.38724458 11.07548666 251.34282875 14.07611084 C251.35009595 14.92794567 251.35736316 15.7797805 251.36485058 16.6574285 C251.38316786 19.52553272 251.36571407 22.39231096 251.34854126 25.26040649 C251.35429978 27.33181507 251.36223908 29.40321854 251.37217748 31.47461128 C251.39311084 37.17738979 251.38270601 42.87975163 251.36724639 48.58253193 C251.35596339 54.72850221 251.37338043 60.87439934 251.387146 67.02035522 C251.40812757 78.36792053 251.40626262 89.71531541 251.39258865 101.06287652 C251.380019 111.54525839 251.37672356 122.02759139 251.38270187 132.50997925 C251.38327476 133.55229439 251.38327476 133.55229439 251.38385922 134.6156664 C251.38541587 137.4362812 251.38700787 140.25689598 251.38865804 143.07751072 C251.40395871 169.54594043 251.39007678 196.01428521 251.36317356 222.48270181 C251.33944487 246.0067934 251.34156798 269.53074968 251.36547852 293.05484009 C251.39224216 319.4743425 251.40287367 345.89376984 251.3874172 372.31328392 C251.38581357 375.12880832 251.38424937 377.94433274 251.38270187 380.75985718 C251.38230649 381.4531291 251.3819111 382.14640103 251.38150373 382.86068119 C251.37581242 393.33738835 251.38247507 403.81404131 251.39509964 414.29074097 C251.40938031 426.20128684 251.40537287 438.11167285 251.37869592 450.02221251 C251.36552702 456.10280908 251.36045784 462.18313055 251.37694168 468.26372528 C251.39179035 473.8251183 251.38373688 479.38598001 251.35705392 484.94732451 C251.35144737 486.964069 251.35435771 488.98085796 251.36643286 490.99757409 C251.38154565 493.73027099 251.3661412 496.46112635 251.34282875 499.19372559 C251.35453458 499.98454269 251.36624041 500.7753598 251.37830096 501.59014106 C251.31140943 505.48860898 250.84928987 507.45008988 248.52007431 510.62334198 C245.38362247 512.87145228 243.98940415 513.26025469 240.18119717 513.2613306 C239.07440591 513.27375264 237.96761466 513.28617468 236.82728428 513.29897314 C235.61660331 513.28713741 234.40592234 513.27530169 233.15855408 513.2631073 C231.22311693 513.27374888 231.22311693 513.27374888 229.24858004 513.28460544 C225.66851218 513.30355114 222.08912651 513.2912814 218.50907576 513.27388251 C214.64723886 513.26052266 210.78550271 513.27594105 206.92367554 513.28770447 C199.35696371 513.30609949 191.79050985 513.29755483 184.22380602 513.27961624 C178.07078645 513.26559272 171.91783694 513.26169692 165.76480293 513.26505852 C164.88915554 513.26553596 164.01350816 513.2660134 163.111326 513.26650531 C161.33239343 513.26753166 159.55346087 513.26858701 157.77452833 513.26967108 C142.0358319 513.27824282 126.2972599 513.26155174 110.55859375 513.23184204 C95.2994259 513.20303798 80.04043756 513.19590415 64.78125 513.21133423 C48.16173235 513.2281169 31.5423 513.23210686 14.9227801 513.21462387 C13.14823791 513.21277954 11.37369572 513.21094481 9.59915352 513.2091198 C8.28956431 513.20775166 8.28956431 513.20775166 6.95351876 513.20635589 C0.81455282 513.20076068 -5.32437137 513.20404852 -11.46333504 513.21066475 C-18.95487736 513.2184181 -26.44624331 513.21157466 -33.93775023 513.18648971 C-37.75698705 513.17403686 -41.57594996 513.16779623 -45.39519691 513.17903137 C-49.54452372 513.1910063 -53.69313749 513.17172972 -57.84242249 513.14958191 C-59.0374884 513.15782268 -60.23255431 513.16606344 -61.46383435 513.17455393 C-79.88278442 512.99368407 -92.51524276 503.91200466 -105.28637695 491.63491821 C-105.63829102 492.35937134 -105.99020508 493.08382446 -106.3527832 493.83023071 C-111.32425345 503.56548577 -116.78302447 509.19908005 -127.28637695 512.63491821 C-130.99972666 513.17814898 -134.65048711 513.20288074 -138.39892578 513.18423462 C-140.01058372 513.19956741 -140.01058372 513.19956741 -141.65480042 513.21520996 C-145.184567 513.24286747 -148.71354655 513.24109861 -152.2434082 513.23648071 C-154.71286811 513.24426257 -157.18232535 513.25293354 -159.65177917 513.26245117 C-164.82051277 513.27734707 -169.98897308 513.27681434 -175.15771484 513.26626587 C-181.7582965 513.25468608 -188.35775398 513.28852738 -194.95814991 513.33495522 C-200.05680301 513.36452268 -205.15518832 513.36616071 -210.25391197 513.35993576 C-212.68621737 513.36095773 -215.11853863 513.37134924 -217.55076027 513.3915596 C-243.23044288 513.57875496 -243.23044288 513.57875496 -253.16975403 505.01153564 C-261.89165195 495.89852012 -261.87486566 485.24177524 -261.83569336 473.37197876 C-261.84439852 471.62658826 -261.85476845 469.88120538 -261.8666687 468.13583374 C-261.89335656 463.41455036 -261.89461633 458.69358809 -261.8895421 453.97224402 C-261.88739607 450.02122566 -261.89718641 446.07027138 -261.90675294 442.11926681 C-261.9289121 432.79215937 -261.92983613 423.46521304 -261.91772461 414.13809204 C-261.90565046 404.53865292 -261.93025975 394.93980048 -261.97286475 385.34046143 C-262.00817589 377.07855184 -262.02008697 368.81682832 -262.01358926 360.55484611 C-262.00997527 355.62928891 -262.01511732 350.70415012 -262.04301834 345.77866173 C-262.06829538 341.14327646 -262.06417602 336.50880074 -262.03819656 331.87342834 C-262.0334915 330.18043514 -262.038839 328.48737671 -262.05544281 326.79445839 C-262.15527813 315.81649674 -261.07763337 306.46133731 -253.66306496 297.72144604 C-246.30500457 290.81057081 -237.98082176 289.03681819 -228.17382812 289.08560181 C-227.0993895 289.07537994 -226.02495087 289.06515808 -224.91795349 289.05462646 C-221.38818691 289.02696895 -217.85920736 289.02873781 -214.3293457 289.03335571 C-211.8598858 289.02557386 -209.39042855 289.01690288 -206.92097473 289.00738525 C-201.75224114 288.99248935 -196.58378082 288.99302208 -191.41503906 289.00357056 C-184.8144574 289.01515035 -178.21499993 288.98130905 -171.614604 288.93488121 C-166.5159509 288.90531374 -161.41756559 288.90367572 -156.31884193 288.90990067 C-153.88653654 288.90887869 -151.45421528 288.89848719 -149.02199364 288.87827682 C-122.38557999 288.68410725 -122.38557999 288.68410725 -112.03637695 298.50991821 C-111.45887695 299.21116821 -110.88137695 299.91241821 -110.28637695 300.63491821 C-105.02726953 295.5846262 -99.79291305 290.5100413 -94.58850765 285.40335846 C-92.17087026 283.03263199 -89.74561851 280.67096971 -87.30078125 278.32827759 C-84.49198007 275.62863226 -81.71325217 272.90096723 -78.9387207 270.16616821 C-77.61855202 268.91567688 -77.61855202 268.91567688 -76.27171326 267.6399231 C-75.47080765 266.83969727 -74.66990204 266.03947144 -73.84472656 265.21499634 C-73.13191025 264.52216553 -72.41909393 263.82933472 -71.68467712 263.11550903 C-68.76648693 257.93862644 -71.57639948 251.01493312 -73.02270508 245.58340454 C-73.19777368 244.92018314 -73.37284227 244.25696175 -73.55321598 243.57364273 C-74.13630361 241.37003656 -74.72689735 239.16851826 -75.31762695 236.96694946 C-75.74186857 235.37098625 -76.16567954 233.77490851 -76.58909607 232.1787262 C-77.50268558 228.73899907 -78.41972604 225.30021639 -79.33932495 221.86209106 C-80.55321818 217.32313849 -81.76092987 212.78257023 -82.96652508 208.24140739 C-88.39664765 187.78976165 -93.89423254 167.35715376 -99.45998764 146.94200706 C-101.20320445 140.54320522 -102.94008893 134.14268005 -104.67742729 127.74228001 C-106.36427233 121.53247058 -108.06389194 115.32632879 -109.77264309 109.12251377 C-110.8377263 105.24513654 -111.89174741 101.36481377 -112.94291878 97.48364449 C-113.43446045 95.6781982 -113.93072386 93.87402984 -114.43203545 92.0712719 C-115.11850988 89.60056758 -115.78820277 87.12588257 -116.45410156 84.64956665 C-116.75837444 83.57821079 -116.75837444 83.57821079 -117.06879425 82.48521137 C-118.56429566 76.81172187 -118.61621299 72.10074681 -115.79907227 66.87710571 C-112.23349846 63.69538887 -108.66004964 62.89398756 -104.08325195 61.75991821 C-103.15265961 61.51340012 -102.22206726 61.26688202 -101.26327515 61.01289368 C-98.19182096 60.20320932 -95.11440667 59.41919736 -92.03637695 58.63491821 C-89.90030264 58.07666844 -87.7647286 57.51650121 -85.62963867 56.95449829 C-81.1541025 55.77779312 -76.67646596 54.60956757 -72.19750977 53.44595337 C-65.28456897 51.6428914 -58.38919573 49.77840014 -51.49731445 47.89663696 C-50.39190308 47.59500641 -49.2864917 47.29337585 -48.14758301 46.98260498 C-43.83647241 45.80548747 -39.52572584 44.62703954 -35.21496582 43.44863892 C-32.242043 42.63715381 -29.26823797 41.82898506 -26.29418945 41.02163696 C-25.40686127 40.77854294 -24.51953308 40.53544891 -23.60531616 40.2849884 C-17.51443775 38.63491821 -17.51443775 38.63491821 -15.28637695 38.63491821 C-15.31256104 37.66143433 -15.33874512 36.68795044 -15.36572266 35.68496704 C-15.45647716 32.06036519 -15.51371596 28.43586294 -15.56103516 24.81045532 C-15.58612242 23.24387707 -15.6202011 21.67741522 -15.66357422 20.11123657 C-15.72448921 17.85451512 -15.75264194 15.59934528 -15.7746582 13.34194946 C-15.80046463 12.64592117 -15.82627106 11.94989288 -15.8528595 11.23277283 C-15.85486309 7.72960407 -15.42259541 5.82818032 -13.39379883 2.94979286 C-8.95944156 -0.35358262 -5.3978219 -0.06155271 0 0 Z M4.71362305 20.63491821 C4.71362305 113.03491821 4.71362305 205.43491821 4.71362305 300.63491821 C10.98362305 300.63491821 17.25362305 300.63491821 23.71362305 300.63491821 C23.71948929 298.11534988 23.72535553 295.59578156 23.73139954 292.99986267 C23.78801145 269.29364262 23.86106278 245.58751419 23.94933796 221.88139057 C23.99432766 209.69287797 24.03373501 197.5043948 24.06005859 185.31582642 C24.08301295 174.69383465 24.11638227 164.07193577 24.16232461 153.45001763 C24.18629136 147.8243793 24.20499752 142.19883316 24.21123695 136.57314491 C24.21727216 131.27983827 24.23721542 125.9867676 24.26789856 120.6935482 C24.27670389 118.74930839 24.28039623 116.80503776 24.27863121 114.86077881 C24.27698346 112.20854228 24.29363494 109.55702938 24.31489563 106.90489197 C24.31004805 106.13348462 24.30520048 105.36207727 24.30020601 104.56729394 C24.35943655 100.09769087 24.90637592 97.16681066 27.71362305 93.63491821 C30.46262606 92.36098999 33.06316014 91.74169437 36.0456543 91.25210571 C44.69899223 89.78994416 50.9382949 86.51409011 56.4675293 79.57632446 C60.08948151 73.93334563 61.08811351 67.33688383 61.9909668 60.79898071 C63.00252115 57.76978552 63.8804017 57.16950111 66.71362305 55.63491821 C69.96247325 55.18165288 73.1917396 55.22541574 76.4675293 55.24673462 C77.951064 55.23884918 77.951064 55.23884918 79.46456909 55.23080444 C82.73524752 55.21759592 86.00543963 55.22634577 89.27612305 55.23648071 C91.54768975 55.23446023 93.81925583 55.23154901 96.09082031 55.2277832 C100.85219497 55.22335868 105.61340082 55.22979517 110.37475586 55.24380493 C116.48160743 55.26089671 122.58806346 55.25105624 128.69490051 55.23308754 C133.38573188 55.22225327 138.07646929 55.22569445 142.76730347 55.23347092 C145.01919603 55.2354739 147.27109709 55.23301022 149.52297974 55.22603226 C152.66878903 55.21842383 155.81395545 55.23001394 158.9597168 55.24673462 C160.35938187 55.23762558 160.35938187 55.23762558 161.787323 55.22833252 C168.05280707 55.29010997 168.05280707 55.29010997 171.26660156 56.96704102 C173.47620879 59.51389575 173.67273504 62.03083001 174.21362305 65.32241821 C176.20127003 75.54460269 179.10308159 81.503169 187.71362305 87.63491821 C192.71643625 90.37230657 197.5772475 91.25147825 203.1628418 92.00991821 C206.03322804 92.71322878 207.56764208 93.61973067 209.71362305 95.63491821 C210.65089047 98.44672049 210.84975381 100.20613997 210.87475586 103.11880493 C210.8843634 104.02339447 210.89397095 104.92798401 210.90386963 105.85998535 C210.91024445 107.32252243 210.91024445 107.32252243 210.91674805 108.81460571 C210.92244812 109.81952057 210.92814819 110.82443542 210.934021 111.85980225 C210.94346882 113.98649035 210.95000411 116.11319308 210.95385742 118.23989868 C210.96356452 121.49032154 210.9945909 124.74011248 211.02612305 127.99038696 C211.0326531 130.05678946 211.03790356 132.12319648 211.04174805 134.18960571 C211.05409485 135.16058197 211.06644165 136.13155823 211.0791626 137.13195801 C211.06285275 142.08232566 211.04687937 145.6676737 207.71362305 149.63491821 C204.27436985 151.35454481 200.48197743 151.01711786 196.71362305 150.63491821 C193.42430791 148.90802777 192.89959635 148.19283811 191.71362305 144.63491821 C191.56039946 142.05161592 191.45655416 139.48999582 191.3972168 136.90444946 C191.36604515 135.77881844 191.36604515 135.77881844 191.33424377 134.63044739 C191.26892378 132.23619637 191.20994512 129.84183683 191.15112305 127.44741821 C191.10792112 125.82305809 191.06430629 124.19870889 191.02026367 122.57437134 C190.91326042 118.59466451 190.81194367 114.61484864 190.71362305 110.63491821 C189.83174316 110.31241089 188.94986328 109.98990356 188.04125977 109.65762329 C186.87868652 109.22345093 185.71611328 108.78927856 184.51831055 108.34194946 C183.36830566 107.91631714 182.21830078 107.49068481 181.03344727 107.05215454 C169.93366466 102.31364608 162.37311439 93.13562989 157.7565918 82.24819946 C157.41241211 81.38581665 157.06823242 80.52343384 156.71362305 79.63491821 C155.72362305 77.15991821 155.72362305 77.15991821 154.71362305 74.63491821 C130.29362305 74.63491821 105.87362305 74.63491821 80.71362305 74.63491821 C77.24862305 82.55491821 77.24862305 82.55491821 73.71362305 90.63491821 C65.59165651 101.26513912 57.37524399 106.4143779 44.71362305 110.63491821 C44.71362305 173.33491821 44.71362305 236.03491821 44.71362305 300.63491821 C61.87362305 300.63491821 79.03362305 300.63491821 96.71362305 300.63491821 C94.68813951 299.11580556 92.66136843 297.59763488 90.6003418 296.12710571 C80.9693655 289.04500236 74.24787805 280.01807755 71.09643555 268.34976196 C68.91570456 252.88437385 71.02586209 238.965347 80.46362305 226.28335571 C87.80734009 217.42943879 97.49187559 212.06841959 108.71362305 209.63491821 C124.91595453 208.80729421 137.56156078 210.67288161 150.40112305 221.32241821 C158.72338897 229.03467512 164.33499127 240.222473 164.91674805 251.61148071 C165.18707343 267.60544555 162.032506 279.48944562 150.9831543 291.55288696 C147.82265025 294.45228224 144.3785333 296.50334037 140.61987305 298.54116821 C139.99081055 298.90210571 139.36174805 299.26304321 138.71362305 299.63491821 C138.71362305 299.96491821 138.71362305 300.29491821 138.71362305 300.63491821 C139.63473877 300.64893677 139.63473877 300.64893677 140.57446289 300.66323853 C143.41326737 300.71761563 146.25054037 300.80112373 149.08862305 300.88491821 C150.05413086 300.8990979 151.01963867 300.91327759 152.0144043 300.92788696 C161.84918628 301.2579132 169.748572 303.9058953 176.9597168 310.70913696 C183.38907245 317.76854083 186.07168915 325.08321637 185.90112305 334.63491821 C185.90015625 335.66359009 185.90015625 335.66359009 185.89916992 336.71304321 C185.86422023 340.7827405 185.49342059 344.6423548 184.71362305 348.63491821 C186.69362305 348.63491821 188.67362305 348.63491821 190.71362305 348.63491821 C190.71416781 348.0365405 190.71471258 347.43816278 190.71527386 346.82165241 C190.73024543 332.25737542 190.77270733 317.69335772 190.84571362 303.12926197 C190.88035728 296.08610895 190.90571828 289.04315151 190.90917969 281.99990845 C190.91254538 275.20458573 190.94184132 268.40977065 190.98705482 261.61459923 C191.00005896 259.0202591 191.00432727 256.4258602 190.99977684 253.83149147 C190.99489197 250.20137842 191.02087298 246.57271464 191.05419922 242.94277954 C191.04557358 241.86671951 191.03694794 240.79065948 191.02806091 239.68199158 C191.14046581 232.39300043 191.14046581 232.39300043 194.11006165 228.46528625 C198.03233631 225.70783018 201.09889496 225.83273184 205.71362305 226.63491821 C209.00293819 228.36180866 209.52764975 229.07699832 210.71362305 232.63491821 C210.80723925 234.38036862 210.84260061 236.12919391 210.84492493 237.87715149 C210.85093719 239.5067556 210.85093719 239.5067556 210.85707092 241.16928101 C210.85627785 242.95764374 210.85627785 242.95764374 210.85546875 244.78213501 C210.86080226 246.70950327 210.86614175 248.63687153 210.87170541 250.56423914 C210.87690316 252.63717865 210.87981632 254.71011182 210.88228798 256.78305626 C210.88820385 261.10796974 210.90475089 265.43280117 210.92362976 269.75767517 C210.92996722 271.23931021 210.93629284 272.72094531 210.94260693 274.20258045 C210.94577274 274.94462432 210.94893855 275.68666818 210.95220029 276.45119822 C210.99424146 286.5188526 211.02723585 296.58646903 211.03955078 306.65420532 C211.04794415 313.44621744 211.07048318 320.23802654 211.10890645 327.02993709 C211.12862711 330.6218078 211.14108516 334.21337529 211.13607216 337.80530357 C211.13054111 341.81739322 211.15588678 345.82873085 211.18359375 349.84072876 C211.17699234 351.02284943 211.17039093 352.20497009 211.16358948 353.4229126 C211.23077157 359.35298011 211.62606731 363.81489603 214.73518658 368.94408894 C218.36767665 375.22136984 218.55048301 382.84527395 217.02612305 389.74819946 C214.37097256 399.33993059 211.22490584 405.74024771 202.58862305 410.94741821 C201.34725586 411.62224243 201.34725586 411.62224243 200.08081055 412.31069946 C197.79127763 413.59147778 195.77387727 415.01614703 193.71362305 416.63491821 C194.03588867 417.6390979 194.3581543 418.64327759 194.69018555 419.67788696 C197.13111983 428.2729998 196.9535187 438.23210316 193.1003418 446.35757446 C188.6764018 453.6228055 182.89657476 459.83672496 174.71362305 462.63491821 C169.72463572 463.5828258 164.7745964 464.18816562 159.71362305 464.63491821 C160.0384668 465.64554321 160.36331055 466.65616821 160.69799805 467.69741821 C161.74857873 471.38744364 161.98080688 474.78574046 161.96362305 478.63491821 C161.97135742 480.36741821 161.97135742 480.36741821 161.97924805 482.13491821 C161.71362305 485.63491821 161.71362305 485.63491821 159.71362305 492.63491821 C182.81362305 492.63491821 205.91362305 492.63491821 229.71362305 492.63491821 C229.71362305 336.87491821 229.71362305 181.11491821 229.71362305 20.63491821 C155.46362305 20.63491821 81.21362305 20.63491821 4.71362305 20.63491821 Z M-24.36645508 62.45498657 C-25.09505234 62.64845169 -25.8236496 62.84191681 -26.57432556 63.04124451 C-28.98942998 63.6832602 -31.40354573 64.3289104 -33.81762695 64.97476196 C-35.4914545 65.42092612 -37.16532387 65.86693342 -38.8392334 66.31278992 C-42.35020158 67.24856207 -45.86069057 68.18610585 -49.37084961 69.12490845 C-53.87617419 70.32973922 -58.38259828 71.53039642 -62.88938141 72.72975826 C-66.34696937 73.6503562 -69.80399464 74.57305239 -73.260849 75.49640083 C-74.92251449 75.93999152 -76.58434921 76.38294878 -78.24635315 76.8252697 C-80.56690683 77.44321536 -82.8866963 78.06395029 -85.20629883 78.68545532 C-85.89727158 78.86887482 -86.58824432 79.05229431 -87.30015564 79.24127197 C-90.87982284 80.20000166 -90.87982284 80.20000166 -94.28637695 81.63491821 C-92.74292222 90.21341103 -90.52375058 98.59731575 -88.27075195 107.00991821 C-87.86255985 108.54317087 -87.45462859 110.07649298 -87.04693604 111.60987854 C-85.94388681 115.75517845 -84.83688469 119.89941288 -83.72894287 124.04340744 C-82.79947166 127.52139358 -81.87200096 130.99991191 -80.94451141 134.47842693 C-78.49215301 143.67565178 -76.03516736 152.87163469 -73.57634735 162.0671339 C-71.78916748 168.75169459 -70.00482257 175.43700746 -68.22192383 182.12271118 C-65.72702245 191.47808409 -63.22815432 200.83239022 -60.72644043 210.1859436 C-59.77256816 213.75265072 -58.82008043 217.31972307 -57.86877441 220.88711548 C-56.7428563 225.10869165 -55.61353145 229.32934286 -54.48174286 233.54934883 C-54.0700005 235.08665938 -53.65936289 236.62426638 -53.25000763 238.16221428 C-51.01137997 246.56952464 -48.62390859 254.90266172 -45.99332047 263.19618225 C-44.54978931 267.75389776 -43.24426922 272.30655244 -42.08325195 276.94351196 C-41.83106903 277.9381118 -41.83106903 277.9381118 -41.5737915 278.95280457 C-41.05712683 280.99164773 -40.54609708 283.03182888 -40.03637695 285.07241821 C-39.51196463 287.16645254 -38.98619952 289.26010066 -38.45611572 291.35270691 C-37.98553578 293.21078234 -37.52007544 295.0701522 -37.05493164 296.92959595 C-36.55340654 299.53020721 -36.55340654 299.53020721 -35.28637695 300.63491821 C-33.94370282 300.72123696 -32.59663373 300.74198295 -31.2512207 300.73257446 C-30.44233398 300.72935181 -29.63344727 300.72612915 -28.80004883 300.72280884 C-27.94991211 300.71442993 -27.09977539 300.70605103 -26.22387695 300.69741821 C-25.36987305 300.69290649 -24.51586914 300.68839478 -23.63598633 300.68374634 C-21.51942032 300.67192195 -19.4028901 300.6539859 -17.28637695 300.63491821 C-17.87079292 296.11168203 -18.67289803 291.78870255 -19.85839844 287.38589478 C-20.18124313 286.17882874 -20.50408783 284.9717627 -20.8367157 283.7281189 C-21.19354337 282.41056911 -21.55046476 281.0930447 -21.9074707 279.77554321 C-22.28357665 278.37591747 -22.65932525 276.97619566 -23.03474426 275.5763855 C-23.83973758 272.57777151 -24.64726742 269.57985608 -25.45666504 266.58242798 C-26.734023 261.85078927 -28.00324937 257.11699036 -29.27172852 252.38296509 C-33.23939945 237.58614119 -37.23321523 222.79685383 -41.28578186 208.02304077 C-42.77018123 202.61122643 -44.24629502 197.19716191 -45.72056866 191.78258133 C-46.9193648 187.38338038 -48.13038977 182.98778059 -49.35045147 178.59443283 C-50.10552589 175.86478192 -50.84941195 173.13217327 -51.59030724 170.39864349 C-52.09780849 168.53981158 -52.61896688 166.68472507 -53.14057922 164.82980347 C-54.69654985 159.04684771 -55.91943517 154.4784878 -54.28637695 148.63491821 C-52.06795807 145.39972401 -49.55859396 144.26774174 -46.03637695 142.82241821 C-38.85769285 139.7830083 -33.12427933 135.03772102 -29.96606445 127.79898071 C-28.19439482 122.15814751 -28.04215626 116.69600035 -28.91137695 110.88491821 C-29.27757375 107.91872417 -29.21690503 106.3280839 -28.53637695 103.32241821 C-26.28637695 100.63491821 -26.28637695 100.63491821 -15.28637695 96.63491821 C-15.28637695 84.75491821 -15.28637695 72.87491821 -15.28637695 60.63491821 C-18.4235278 60.63491821 -21.35411126 61.64653174 -24.36645508 62.45498657 Z M-16.28637695 144.63491821 C-17.32844358 145.8249885 -18.34434241 147.03800148 -19.34887695 148.25991821 C-22.45178167 151.87569974 -25.69867131 154.6734278 -29.5871582 157.40835571 C-31.42162815 158.6638487 -31.42162815 158.6638487 -33.28637695 160.63491821 C-27.67637695 181.42491821 -22.06637695 202.21491821 -16.28637695 223.63491821 C-15.95637695 223.63491821 -15.62637695 223.63491821 -15.28637695 223.63491821 C-15.28637695 197.56491821 -15.28637695 171.49491821 -15.28637695 144.63491821 C-15.61637695 144.63491821 -15.94637695 144.63491821 -16.28637695 144.63491821 Z M95.71362305 239.63491821 C90.46184996 246.88448394 90.11869943 253.9243384 90.71362305 262.63491821 C92.06075675 269.85258869 96.70300668 275.72952389 102.5847168 279.99038696 C109.79524921 284.28569337 117.81188495 284.73644125 125.99487305 283.20913696 C132.81397344 281.0037533 138.50357987 276.07055026 142.15112305 269.94741821 C145.55088335 262.73992637 146.12502175 254.0342737 143.65112305 246.38491821 C140.40940269 239.07963289 134.83428296 233.99372006 127.71362305 230.63491821 C115.33631564 226.73593554 104.25478009 230.41198367 95.71362305 239.63491821 Z M-89.07757568 305.72938538 C-106.93019972 323.83483581 -108.8779441 342.1066465 -108.73932886 366.69108236 C-108.64942249 374.49104314 -108.29625944 382.27107045 -107.87691355 390.05927408 C-107.45862177 398.0711238 -107.35778891 406.07991291 -107.25223017 414.10078347 C-107.15863516 420.26979067 -106.98712137 426.4370139 -106.80404568 432.60392642 C-106.7611288 434.08165948 -106.72091324 435.55947354 -106.68344212 437.03735471 C-106.5596527 441.87084363 -106.34618729 446.69169881 -106.08813477 451.51992798 C-106.05810364 452.72133926 -106.02807251 453.92275055 -105.99713135 455.16056824 C-105.55293643 461.85089358 -104.40910744 465.21098994 -99.37200928 469.78761292 C-97.69910569 471.09901405 -96.00597426 472.38537251 -94.28637695 473.63491821 C-93.22266437 474.51786448 -92.16399575 475.4069925 -91.11450195 476.30679321 C-89.32577485 477.74861566 -87.53668701 479.18999064 -85.74731445 480.63101196 C-83.83048095 482.1918621 -81.99406461 483.79192411 -80.16137695 485.44741821 C-71.9619265 491.68613052 -63.40269345 492.78764794 -53.28529358 492.77536011 C-52.50908218 492.77833123 -51.73287079 492.78130235 -50.93313783 492.78436351 C-48.34782946 492.79299346 -45.7625677 492.79455387 -43.17724609 492.79605103 C-41.31729535 492.80068309 -39.45734556 492.80570827 -37.59739685 492.81109619 C-32.55611303 492.82418113 -27.5148425 492.83065701 -22.47354436 492.83510685 C-19.32208215 492.8380427 -16.17062353 492.84214838 -13.01916313 492.84661102 C-3.1531018 492.86027303 6.71295126 492.86994714 16.57902139 492.87381291 C27.95807547 492.87829653 39.3370096 492.89586399 50.7160272 492.92481351 C59.52046928 492.9464341 68.32487761 492.95651733 77.12934595 492.95785403 C82.38444898 492.95890139 87.63943906 492.96479516 92.89451408 492.98267365 C97.83658309 492.99916175 102.77845428 493.00130621 107.720541 492.99253464 C109.53131897 492.99176478 111.34210762 492.99610025 113.15285873 493.00599289 C115.63065876 493.01873326 118.10776022 493.01282464 120.58555603 493.00241089 C121.65235994 493.0144955 121.65235994 493.0144955 122.74071544 493.02682424 C128.05840554 492.97479008 131.92269348 491.78720179 136.71362305 489.63491821 C140.70435282 485.43953563 142.07971754 482.57623863 141.99487305 476.73257446 C141.53050983 473.26919877 139.95534831 471.24016649 137.71362305 468.63491821 C132.14343883 464.49298636 126.50014845 464.48967754 119.77392578 464.50894165 C118.9895816 464.50707352 118.20523743 464.50520538 117.39712524 464.50328064 C115.70020818 464.49928853 114.00328578 464.4972029 112.30636406 464.49681854 C108.6986567 464.49339239 105.09112787 464.4720233 101.48348331 464.45158768 C94.77151564 464.41359611 88.05974388 464.38230925 81.34765625 464.38442993 C76.67322025 464.3852159 71.99944538 464.36191008 67.32518196 464.32254791 C65.54501376 464.31207503 63.76476939 464.31057336 61.98458672 464.31819916 C59.4969677 464.32779724 57.0113627 464.3066894 54.52392578 464.2784729 C53.78875229 464.28866959 53.0535788 464.29886627 52.29612732 464.30937195 C48.50227332 464.23212242 47.01056221 463.92658069 44.25868225 461.22360229 C42.76862915 458.72707872 42.16755989 457.49083414 42.21362305 454.63491821 C42.1981543 453.67585571 42.1981543 453.67585571 42.18237305 452.69741821 C43.04223633 449.35912546 44.13122469 447.97954807 46.71362305 445.63491821 C50.37039438 444.865682 53.99614455 444.96591551 57.72094727 445.00723267 C58.8433078 444.99996155 59.96566833 444.99269043 61.12203979 444.98519897 C64.83778201 444.96657398 68.55256746 444.9826896 72.26831055 444.99819946 C74.84897728 444.99016242 77.42963739 444.97964611 80.01028442 444.9667511 C86.11589608 444.94107514 92.2211767 444.93610884 98.32682908 444.94252414 C109.9002959 444.95410619 121.47361461 444.92306379 133.04700089 444.88216209 C136.84820787 444.87330456 140.64920234 444.87861782 144.45040894 444.88572693 C146.78277647 444.88234211 149.11514351 444.87859274 151.44750977 444.87442017 C152.5043396 444.8801152 153.56116943 444.88581024 154.65002441 444.89167786 C162.32282436 444.86080124 167.9261821 444.10083466 173.71362305 438.63491821 C175.99774866 435.5894174 176.1320633 432.42616234 176.03393555 428.66226196 C175.36619376 424.43594504 172.80546428 421.65631807 169.77612305 418.82241821 C166.0026773 416.64982824 162.01485694 416.51013523 157.73545837 416.51034546 C156.75832382 416.50778244 155.78118927 416.50521942 154.77444458 416.50257874 C153.71401947 416.5046785 152.65359436 416.50677826 151.56103516 416.50894165 C149.87245644 416.50613945 149.87245644 416.50613945 148.14976501 416.50328064 C145.70801459 416.4992806 143.26626043 416.49720217 140.82450676 416.49681854 C134.96936067 416.49296149 129.11432418 416.46688432 123.25922883 416.44360209 C114.27322699 416.40851873 105.28734563 416.38194494 96.30126953 416.38442993 C89.58448828 416.38618748 82.86823756 416.36194256 76.1515522 416.32254791 C73.58987053 416.31205996 71.02813584 416.31058427 68.46644402 416.31819916 C64.88938952 416.32777538 61.31374349 416.30672449 57.73681641 416.2784729 C56.1431424 416.29376793 56.1431424 416.29376793 54.51727295 416.30937195 C47.34420507 416.20746251 47.34420507 416.20746251 44.05787659 413.22360229 C42.78299203 410.7685049 42.16955255 409.36728932 42.21362305 406.63491821 C42.1981543 405.67585571 42.1981543 405.67585571 42.18237305 404.69741821 C42.97961426 401.60224643 44.51155671 399.92360815 46.71362305 397.63491821 C49.32584095 397.00964832 49.32584095 397.00964832 52.34858704 397.00914001 C53.49670868 396.99674286 54.64483032 396.9843457 55.82774353 396.97157288 C57.71125267 396.98922447 57.71125267 396.98922447 59.6328125 397.00723267 C60.97179154 397.00205319 62.31076356 396.99465267 63.64971924 396.98519897 C66.53147791 396.96963431 69.41265494 396.96980761 72.29442787 396.98220253 C76.8545216 397.00174699 81.41409861 396.98654381 85.97416687 396.9667511 C93.19060828 396.93959376 100.4068393 396.93611078 107.62332171 396.94252414 C120.53564754 396.95345386 133.44790894 396.92880302 146.36017007 396.88877648 C150.88930055 396.87572957 155.41823807 396.87443252 159.9473778 396.88290942 C162.77095186 396.88654544 165.59447707 396.8822211 168.41804504 396.87606812 C170.34300869 396.87447258 172.26797255 396.88290495 174.19291687 396.89167786 C184.49258238 396.94060382 184.49258238 396.94060382 193.52612305 392.50991821 C196.20415271 388.99022208 197.52794908 386.07421396 197.71362305 381.63491821 C196.32323281 377.0002841 194.61301304 373.55946071 190.71362305 370.63491821 C184.0674531 368.05468719 177.45804316 368.36327779 170.40625 368.39541626 C169.06196995 368.39430204 167.71769041 368.39224213 166.37341309 368.38931274 C163.49022512 368.38460791 160.60711874 368.38569221 157.72393227 368.39108849 C153.16454354 368.39872028 148.60531082 368.38801962 144.04594421 368.37388611 C131.08514751 368.33620414 118.12442331 368.31797986 105.16357422 368.32949829 C97.99654411 368.33571059 90.82976729 368.32416078 83.66279954 368.29305297 C79.13014249 368.27438796 74.59820241 368.27772503 70.06555712 368.29722059 C67.24854937 368.30409559 64.43193189 368.29016026 61.61499786 368.2702713 C59.68590495 368.26280913 57.75676616 368.28018542 55.82774353 368.29826355 C54.67962189 368.28586639 53.53150024 368.27346924 52.34858704 368.26069641 C51.35108083 368.26052867 50.35357462 368.26036093 49.32584095 368.2601881 C45.73152566 367.39983984 44.68418994 365.67079581 42.71362305 362.63491821 C42.18237305 360.57241821 42.18237305 360.57241821 42.21362305 358.63491821 C42.1981543 357.67585571 42.1981543 357.67585571 42.18237305 356.69741821 C43.02987438 353.40711891 44.20478175 351.96396784 46.71362305 349.63491821 C50.06097239 348.87465183 53.36701951 348.96556079 56.78710938 349.00723267 C57.81032791 348.99996155 58.83354645 348.99269043 59.88777161 348.98519897 C63.27408247 348.96658016 66.65934254 348.98268802 70.0456543 348.99819946 C72.39972377 348.99016115 74.75378597 348.97964411 77.10783386 348.9667511 C83.31126181 348.93815705 89.51435607 348.93763379 95.71783447 348.9446106 C105.63660311 348.95192309 115.55526276 348.92056013 125.47394371 348.88216209 C128.93663087 348.87331829 132.39908397 348.8786125 135.86177063 348.88572693 C137.99183211 348.88234128 140.12189304 348.87859166 142.25195312 348.87442017 C143.2116803 348.8801152 144.17140747 348.88581024 145.16021729 348.89167786 C153.84473656 348.91418923 153.84473656 348.91418923 161.45581055 345.19741821 C165.08047809 340.19787677 166.56412794 336.89137205 165.71362305 330.63491821 C163.66439957 326.75603091 161.54082881 323.83846092 157.71362305 321.63491821 C153.34205755 320.4649731 149.00697578 320.49604631 144.51525879 320.51034546 C143.28295131 320.50823024 143.28295131 320.50823024 142.02574873 320.50607228 C139.27520519 320.50242472 136.52471338 320.50575344 133.77416992 320.50894165 C131.80127421 320.50754661 129.8283788 320.50564713 127.85548401 320.50328064 C123.60812642 320.49878621 119.36077848 320.49692761 115.11341858 320.49681854 C108.3990331 320.4956782 101.6847026 320.4828408 94.97033691 320.46725464 C93.83722785 320.46468179 92.70411878 320.46210893 91.53667307 320.45945811 C89.21984605 320.45419174 86.90301907 320.44890626 84.58619213 320.44360209 C68.95499507 320.40848013 53.32386676 320.38194389 37.69262695 320.38442993 C27.1471146 320.38601696 16.60178997 320.37002197 6.05633783 320.33372331 C0.47540457 320.31524049 -5.10521515 320.30594108 -10.68617249 320.31819916 C-15.93286582 320.329612 -21.1789969 320.31798802 -26.42561531 320.28856468 C-28.35212753 320.28190947 -30.27869098 320.28381585 -32.20518303 320.29486275 C-34.83346946 320.30868498 -37.45984452 320.29189887 -40.0880127 320.26742554 C-40.8521185 320.27878092 -41.6162243 320.29013629 -42.40348482 320.30183578 C-46.33085607 320.2306136 -48.10383673 319.77979079 -51.2173996 317.30871964 C-53.73700011 314.05256441 -54.55468101 311.36037778 -55.5246582 307.36538696 C-55.69515182 306.68438431 -55.86564545 306.00338165 -56.04130554 305.30174255 C-56.577105 303.14565309 -57.08827215 300.984597 -57.59887695 298.82241821 C-57.95989026 297.35131735 -58.32250489 295.88060848 -58.68676758 294.41030884 C-59.57186678 290.82285783 -60.43499141 287.23053863 -61.28637695 283.63491821 C-69.57354245 283.63491821 -83.03791535 299.82654512 -89.07757568 305.72938538 Z M-238.28637695 312.63491821 C-240.73166671 316.30285285 -240.5442754 318.07825463 -240.56053162 322.45385742 C-240.56576829 323.15118032 -240.57100497 323.84850322 -240.57640034 324.56695712 C-240.59143082 326.90916715 -240.59210615 329.25115931 -240.59277344 331.59341431 C-240.60039287 333.27045563 -240.60881999 334.94749345 -240.61799622 336.62452698 C-240.63996911 341.18446368 -240.64874382 345.74433333 -240.65382266 350.304317 C-240.65746285 353.15221296 -240.66370113 356.00009126 -240.67082405 358.8479805 C-240.69532796 368.78054834 -240.70837254 378.71306388 -240.71191406 388.6456604 C-240.71555038 397.90875077 -240.74545014 407.17151001 -240.78731865 416.43449914 C-240.82199081 424.38362816 -240.83746197 432.33264727 -240.8381601 440.28185141 C-240.83895395 445.03119298 -240.84774194 449.78019736 -240.87615776 454.52946091 C-240.90228597 458.99637051 -240.90457323 463.46266214 -240.88850212 467.92961311 C-240.88668344 469.56911247 -240.89341613 471.20864693 -240.90932083 472.84807014 C-240.92971549 475.08678542 -240.91927205 477.32332494 -240.90110779 479.56201172 C-240.90311912 480.8145191 -240.90513044 482.06702648 -240.90720272 483.35748863 C-240.11040211 487.56391501 -238.62111675 489.02716607 -235.28637695 491.63491821 C-232.58973892 492.6882577 -230.08738576 492.76303859 -227.20793152 492.77536011 C-226.40479019 492.78107025 -225.60164886 492.7867804 -224.77416992 492.79266357 C-223.90187744 492.79378143 -223.02958496 492.79489929 -222.13085938 492.79605103 C-221.20517654 492.80101593 -220.27949371 492.80598083 -219.32575989 492.81109619 C-216.26444758 492.82569694 -213.2031871 492.83251632 -210.1418457 492.83804321 C-208.01198831 492.84379633 -205.88213093 492.84955405 -203.75227356 492.85531616 C-199.28601846 492.86582018 -194.81978134 492.87166679 -190.35351562 492.87515259 C-184.6371011 492.88063635 -178.92092488 492.90466453 -173.20458508 492.93312454 C-168.80446178 492.95176924 -164.40439568 492.9569575 -160.00423622 492.95848846 C-157.89715586 492.96151132 -155.79007642 492.96952741 -153.6830349 492.98267365 C-150.73186602 492.99977238 -147.78127676 492.99784445 -144.83007812 492.99136353 C-143.53074844 493.0051857 -143.53074844 493.0051857 -142.20516968 493.01928711 C-136.83613086 492.98244511 -132.90427134 492.4962059 -128.28637695 489.63491821 C-125.74686369 484.79241488 -124.91069786 481.18216141 -124.90542603 475.65213013 C-124.90074605 474.98546908 -124.89606608 474.31880803 -124.89124429 473.63194513 C-124.87936032 471.41723378 -124.888725 469.20314883 -124.89819336 466.98843384 C-124.8941247 465.39286439 -124.88878117 463.79729777 -124.88226318 462.20173645 C-124.86861871 457.88150016 -124.87387634 453.56147947 -124.88340044 449.24123955 C-124.89101192 444.71348376 -124.88394729 440.18574604 -124.87924194 435.6579895 C-124.87378873 428.05537615 -124.88096461 420.4528503 -124.89526367 412.85025024 C-124.91158936 404.06888455 -124.90630054 395.28772784 -124.88978446 386.50636721 C-124.87615722 378.95796565 -124.87425598 371.4096269 -124.88210046 363.86121702 C-124.88677018 359.35677892 -124.88742116 354.85243895 -124.877491 350.3480072 C-124.86880559 346.11259014 -124.87487189 341.87744174 -124.89217377 337.6420536 C-124.89613022 336.09048724 -124.895019 334.53889815 -124.88838577 332.98734093 C-124.88014642 330.8638273 -124.8905193 328.74116611 -124.90542603 326.6177063 C-124.9065571 325.43123253 -124.90768818 324.24475876 -124.90885353 323.02233124 C-125.36732816 318.90856543 -126.36172256 316.29868594 -128.28637695 312.63491821 C-133.49228513 309.45193274 -138.07255283 309.22197238 -144.0637207 309.34194946 C-144.87506973 309.34619431 -145.68641876 309.35043915 -146.52235413 309.35481262 C-149.08987952 309.37147954 -151.6565926 309.40910773 -154.22387695 309.44741821 C-155.97451658 309.46248061 -157.72516863 309.47616629 -159.47583008 309.48843384 C-163.74632087 309.52134353 -168.01621164 309.57304096 -172.28637695 309.63491821 C-172.2896871 310.22114488 -172.29299725 310.80737154 -172.2964077 311.41136265 C-172.37771929 325.69254003 -172.46983836 339.97361768 -172.57390404 354.25464725 C-172.62397087 361.16092285 -172.67041431 368.06718694 -172.70825195 374.97354126 C-172.7447804 381.63905954 -172.79150653 388.30443522 -172.84444046 394.96984673 C-172.86296703 397.51230068 -172.87808139 400.05478188 -172.88972092 402.59727669 C-172.90661273 406.15951674 -172.93565578 409.72146669 -172.9675293 413.28359985 C-172.96968948 414.33376785 -172.97184967 415.38393585 -172.97407532 416.46592712 C-173.03591302 421.87919495 -173.29165029 426.56914815 -175.28637695 431.63491821 C-178.70421494 434.17842555 -180.65310247 434.64583674 -184.91137695 434.57241821 C-188.67710005 433.52638402 -189.866333 432.63250473 -192.28637695 429.63491821 C-192.79418564 427.26864243 -192.79418564 427.26864243 -192.80535889 424.59823608 C-192.8192717 423.58303894 -192.83318451 422.5678418 -192.84751892 421.5218811 C-192.84248856 420.41417358 -192.83745819 419.30646606 -192.83227539 418.16519165 C-192.84261307 416.99417908 -192.85295074 415.8231665 -192.86360168 414.6166687 C-192.89312167 410.7424047 -192.89453087 406.86866104 -192.89575195 402.99429321 C-192.90852519 400.30955202 -192.92725791 397.62486132 -192.94586182 394.94015503 C-192.98642337 388.5937492 -193.00676279 382.24744613 -193.01983571 375.90093064 C-193.03570532 368.67476472 -193.07412068 361.44877367 -193.114429 354.22270918 C-193.1968299 339.36017454 -193.25092075 324.49764193 -193.28637695 309.63491821 C-198.56995606 309.56043705 -203.85322559 309.50616027 -209.13720703 309.47012329 C-210.93250863 309.45509105 -212.72777383 309.43465964 -214.52294922 309.40859985 C-217.11215222 309.37197035 -219.70086723 309.35513611 -222.2902832 309.34194946 C-223.08535782 309.32646561 -223.88043243 309.31098175 -224.69960022 309.29502869 C-229.96915207 309.29345811 -233.63297192 310.09882174 -238.28637695 312.63491821 Z " fill="#000000" transform="translate(261.286376953125,-0.634918212890625)"/>
<path d="M0 0 C3 1.4375 3 1.4375 5 4 C6.29282605 8.33096727 6.53077114 11.75268782 4.75 15.9375 C2.7297043 18.31856279 1.06245731 19.82889264 -2.0859375 20.3359375 C-5.93211019 20.40157185 -8.48452922 20.24699641 -12 18.5625 C-14.84918034 14.91198769 -15.2942122 11.57663425 -15 7 C-11.98054704 -0.09571447 -7.05326098 -0.95280894 0 0 Z " fill="#000000" transform="translate(467,180)"/>
<path d="M0 0 C3.125 1.875 3.125 1.875 5 5 C5.98876625 10.02622846 5.7769173 13.70513784 3.125 18.125 C-1.29486216 20.7769173 -4.97377154 20.98876625 -10 20 C-13.125 18.125 -13.125 18.125 -15 15 C-15.98876625 9.97377154 -15.7769173 6.29486216 -13.125 1.875 C-8.70513784 -0.7769173 -5.02622846 -0.98876625 0 0 Z " fill="#000000" transform="translate(83,452)"/>
</svg>
